<?xml version="1.0" standalone="no"?>
<!DOCTYPE svg PUBLIC "-//W3C//DTD SVG 20010904//EN"
 "http://www.w3.org/TR/2001/REC-SVG-20010904/DTD/svg10.dtd">
<svg version="1.0" xmlns="http://www.w3.org/2000/svg"
 width="600.000000pt" height="600.000000pt" viewBox="0 0 600.000000 600.000000"
 preserveAspectRatio="xMidYMid meet">

<g transform="translate(0.000000,600.000000) scale(0.100000,-0.100000)"
fill="#000000" stroke="none">
<path d="M0 3000 l0 -3000 3000 0 3000 0 0 3000 0 3000 -3000 0 -3000 0 0
-3000z m3837 1489 c44 -16 73 -49 73 -82 0 -66 -65 -86 -151 -47 -121 54 -250
-17 -294 -163 -22 -74 -31 -212 -15 -232 9 -11 34 -15 100 -15 92 0 108 -8 93
-47 -12 -33 -37 -42 -110 -43 -63 0 -74 -3 -84 -21 -8 -15 -10 -92 -7 -253 4
-197 7 -236 22 -267 18 -36 61 -69 89 -69 24 0 42 -27 28 -44 -9 -11 -50 -13
-194 -12 -165 1 -182 3 -182 18 0 11 18 27 45 40 25 13 51 34 57 48 18 36 18
523 0 538 -7 6 -35 15 -62 19 -43 7 -50 12 -53 34 -4 35 24 57 77 61 26 2 47
9 52 18 4 8 14 61 23 117 32 212 141 350 316 399 57 15 140 17 177 3z m518 -9
c73 -35 82 -102 20 -136 -34 -18 -35 -18 -87 5 -184 82 -311 -16 -338 -262
-15 -134 -14 -135 103 -139 86 -3 92 -4 95 -25 6 -41 -30 -63 -102 -63 -104 0
-96 22 -96 -259 0 -291 2 -301 88 -341 40 -19 52 -30 50 -45 -3 -19 -11 -20
-190 -21 -137 -1 -188 2 -192 11 -7 18 6 31 46 48 69 29 73 43 76 295 4 270 2
286 -40 301 -17 6 -44 11 -59 11 -35 0 -47 31 -25 65 13 20 25 25 59 25 23 0
48 4 55 9 8 5 17 40 23 86 15 134 43 212 108 298 94 126 292 192 406 137z
m-1630 -108 c203 -65 336 -204 392 -412 24 -89 24 -270 -1 -365 -49 -186 -170
-325 -338 -387 -32 -11 -58 -27 -58 -34 0 -7 14 -50 32 -96 31 -82 31 -87 39
-318 10 -311 37 -423 124 -498 31 -28 43 -32 90 -32 46 0 59 5 89 30 42 37 61
84 87 213 50 251 235 468 306 360 18 -27 18 -31 26 -414 1 -65 -10 -95 -77
-209 -27 -47 -71 -132 -97 -189 -78 -170 -117 -221 -271 -354 -110 -94 -167
-234 -155 -382 3 -38 14 -91 23 -117 17 -45 17 -48 -1 -68 -18 -19 -28 -20
-376 -20 l-357 0 -26 45 c-15 25 -56 78 -92 118 -89 99 -171 223 -206 313 -18
46 -34 116 -43 187 -34 259 -79 370 -186 450 -165 124 -206 205 -140 279 61
68 162 32 292 -103 71 -75 98 -85 124 -45 41 62 1 116 -110 151 -75 24 -98 51
-103 124 -8 112 55 193 161 207 40 6 53 3 87 -20 49 -33 82 -82 110 -166 36
-106 83 -151 109 -102 13 24 1 70 -77 292 -11 31 -35 64 -79 106 -54 51 -65
68 -70 102 -11 80 59 172 130 172 47 0 98 -30 165 -96 72 -72 96 -120 112
-219 29 -190 108 -313 160 -250 16 19 9 129 -18 280 -11 61 -25 145 -32 188
-7 44 -18 80 -24 82 -6 1 -36 8 -66 15 -185 42 -339 182 -407 370 -25 69 -27
87 -27 230 0 141 2 161 25 227 69 192 196 310 391 363 93 26 271 22 363 -8z"/>
<path d="M2400 4297 c-110 -32 -188 -97 -239 -198 -43 -87 -54 -154 -48 -299
3 -100 9 -138 29 -191 31 -84 70 -151 120 -205 42 -46 135 -110 144 -101 4 3
-3 34 -15 68 -12 35 -21 84 -21 110 0 39 5 51 26 68 112 88 266 -29 299 -226
4 -24 9 -43 11 -43 3 0 22 9 44 20 85 43 150 124 192 236 29 80 32 297 4 389
-68 224 -231 371 -423 381 -47 2 -96 -1 -123 -9z"/>
</g>
</svg>
