<?xml version="1.0" standalone="no"?>
<!DOCTYPE svg PUBLIC "-//W3C//DTD SVG 20010904//EN"
 "http://www.w3.org/TR/2001/REC-SVG-20010904/DTD/svg10.dtd">
<svg version="1.0" xmlns="http://www.w3.org/2000/svg"
 width="600.000000pt" height="600.000000pt" viewBox="0 0 600.000000 600.000000"
 preserveAspectRatio="xMidYMid meet">

<g transform="translate(0.000000,600.000000) scale(0.100000,-0.100000)"
fill="#000000" stroke="none">
<path d="M1054 5385 c-183 -50 -335 -198 -373 -366 -15 -62 -13 -175 3 -236
46 -174 189 -307 381 -358 86 -22 237 -20 318 5 79 25 175 87 222 144 35 43
35 44 35 140 0 87 2 100 21 114 19 16 13 17 -100 17 -67 0 -121 -1 -121 -2 0
-2 9 -12 20 -23 18 -18 20 -33 20 -158 l0 -139 -37 -16 c-84 -36 -194 -51
-277 -37 -199 32 -330 207 -329 440 1 187 89 337 241 408 50 24 69 27 157 27
87 0 107 -4 157 -27 71 -33 141 -97 179 -163 16 -27 29 -45 30 -40 0 6 0 42
-1 80 -1 55 -6 75 -22 92 -27 29 -121 78 -187 97 -68 20 -264 21 -337 1z"/>
<path d="M3211 5384 c-227 -61 -381 -253 -381 -472 1 -147 40 -243 139 -343
108 -108 239 -159 406 -159 142 0 263 38 352 109 29 23 33 32 33 75 l0 49 -54
-57 c-67 -69 -133 -101 -244 -116 -207 -28 -370 70 -437 261 -102 288 66 597
334 617 157 11 296 -61 372 -193 l29 -50 0 82 c0 79 -1 82 -31 108 -41 34
-110 69 -178 89 -70 21 -264 21 -340 0z"/>
<path d="M4298 5385 c-189 -52 -327 -186 -373 -362 -56 -214 48 -440 250 -545
108 -56 179 -71 315 -65 133 5 209 28 292 85 50 36 53 40 58 90 3 29 4 52 2
52 -2 0 -24 -22 -49 -50 -59 -66 -144 -107 -249 -120 -268 -34 -465 150 -464
434 1 96 11 146 46 221 39 82 104 149 182 187 62 31 74 33 167 33 91 0 106 -3
165 -31 71 -34 137 -95 177 -161 14 -24 27 -43 29 -43 3 0 2 35 -2 78 -5 56
-12 83 -26 99 -26 28 -120 77 -187 97 -67 20 -264 20 -333 1z"/>
<path d="M2646 5382 l-69 -3 22 -23 c22 -23 22 -26 19 -347 -3 -322 -3 -324
-28 -372 -51 -100 -137 -149 -264 -150 -109 -1 -172 21 -225 78 -66 72 -71
102 -71 462 0 300 1 314 20 333 l20 20 -116 0 -115 0 20 -26 c20 -26 21 -38
21 -328 0 -361 6 -393 85 -491 37 -46 113 -91 189 -111 80 -21 210 -18 286 8
86 29 168 107 201 193 21 57 23 78 29 389 7 328 7 329 30 348 12 10 21 20 19
21 -2 1 -35 1 -73 -1z"/>
<path d="M5061 5361 l24 -19 0 -437 0 -436 -22 -17 c-22 -16 -18 -17 98 -18
119 -1 121 0 98 17 l-24 18 0 436 0 437 24 19 c23 19 23 19 -99 19 -122 0
-122 0 -99 -19z"/>
<path d="M2225 3389 c-139 -20 -335 -86 -455 -152 -375 -208 -621 -540 -712
-960 -32 -147 -32 -408 1 -557 60 -278 182 -502 385 -706 405 -404 983 -522
1518 -308 83 33 95 36 123 24 218 -89 344 -119 540 -127 392 -17 760 129 1041
411 433 434 536 1074 261 1621 -199 396 -582 676 -1027 750 -162 27 -406 17
-560 -23 -63 -16 -154 -46 -202 -65 l-87 -36 -63 28 c-85 39 -214 77 -323 95
-98 17 -338 20 -440 5z m440 -283 c118 -25 117 -17 12 -125 -107 -110 -201
-245 -263 -375 -34 -73 -84 -205 -84 -223 0 -1 64 -3 143 -3 l143 0 39 87 c21
48 61 121 88 162 54 82 206 241 274 286 l43 28 57 -43 c135 -101 260 -257 339
-425 l45 -95 144 0 144 0 -30 88 c-75 212 -224 438 -371 565 l-51 44 66 16
c327 83 688 8 957 -198 76 -58 184 -171 238 -247 64 -91 139 -251 169 -365 25
-90 27 -113 27 -283 0 -168 -3 -194 -27 -282 -163 -609 -777 -960 -1390 -797
l-39 10 83 82 c136 135 238 286 308 459 42 102 86 266 97 361 l6 57 -336 0
-336 0 0 -134 0 -133 164 -9 165 -9 -38 -81 c-71 -150 -177 -287 -298 -385
-42 -33 -82 -63 -89 -66 -32 -12 -235 179 -313 296 -44 64 -121 210 -121 228
0 6 65 13 160 18 l160 7 0 134 0 134 -335 0 -336 0 5 -32 c3 -18 10 -67 17
-108 38 -251 182 -530 373 -726 l92 -94 -30 -10 c-64 -20 -212 -40 -301 -40
-496 0 -940 335 -1079 812 -113 389 -13 792 268 1086 177 184 389 297 634 337
106 17 307 13 407 -9z"/>
</g>
</svg>
