<?xml version="1.0" standalone="no"?>
<!DOCTYPE svg PUBLIC "-//W3C//DTD SVG 20010904//EN"
 "http://www.w3.org/TR/2001/REC-SVG-20010904/DTD/svg10.dtd">
<svg version="1.0" xmlns="http://www.w3.org/2000/svg"
 width="600.000000pt" height="600.000000pt" viewBox="0 0 600.000000 600.000000"
 preserveAspectRatio="xMidYMid meet">

<g transform="translate(0.000000,600.000000) scale(0.100000,-0.100000)"
fill="#000000" stroke="none">
<path d="M312 3008 l3 -353 215 1 c198 0 218 2 255 21 72 38 105 96 105 186 0
65 -38 132 -93 161 l-36 20 30 33 c35 40 43 69 37 132 -6 61 -39 108 -92 132
-35 16 -67 19 -234 19 l-192 0 2 -352z m326 206 c49 -34 47 -100 -5 -123 -13
-6 -55 -11 -93 -11 l-70 0 0 75 0 75 73 0 c50 0 80 -5 95 -16z m60 -280 c13
-9 27 -27 32 -40 11 -29 -5 -81 -30 -94 -10 -6 -66 -10 -124 -10 l-106 0 0 80
0 80 103 0 c78 0 108 -4 125 -16z"/>
<path d="M970 3117 c0 -271 7 -315 61 -380 17 -21 54 -50 83 -65 46 -25 61
-27 161 -27 104 0 113 2 164 30 30 17 67 48 83 69 51 71 58 116 58 378 l0 238
-79 0 -79 0 -4 -237 c-3 -212 -5 -241 -22 -269 -26 -43 -66 -64 -121 -64 -63
0 -103 23 -126 73 -16 37 -19 68 -19 270 l0 227 -80 0 -80 0 0 -243z"/>
<path d="M1702 3008 l3 -353 75 0 75 0 3 138 3 138 62 -3 62 -3 78 -137 78
-138 85 0 c46 0 84 3 84 8 0 4 -35 69 -78 146 l-79 138 48 48 c75 75 88 158
42 251 -21 40 -40 61 -77 84 l-49 30 -209 3 -208 3 2 -353z m383 187 c33 -32
33 -74 -1 -106 -24 -22 -33 -24 -127 -24 l-102 0 -3 78 -3 77 106 0 c99 0 107
-2 130 -25z"/>
<path d="M2390 3010 l0 -350 220 0 c257 0 278 6 331 88 27 42 30 53 27 113 -4
77 -36 134 -93 165 l-34 18 30 33 c35 40 43 69 37 132 -6 61 -39 108 -92 132
-35 16 -67 19 -233 19 l-193 0 0 -350z m328 204 c30 -21 41 -53 30 -85 -12
-36 -47 -49 -128 -49 l-70 0 0 75 0 75 73 0 c50 0 80 -5 95 -16z m66 -286 c36
-33 39 -85 6 -118 -18 -18 -33 -20 -130 -20 l-110 0 0 80 0 80 104 0 c95 0
107 -2 130 -22z"/>
<path d="M3062 3008 l3 -353 268 -3 267 -2 0 75 0 75 -185 0 -185 0 0 75 0 75
155 0 155 0 0 65 0 65 -155 0 -155 0 0 70 0 70 178 2 177 3 0 65 0 65 -263 3
-262 2 2 -352z"/>
<path d="M3712 3008 l3 -353 78 -1 77 -2 0 139 0 139 64 0 64 0 62 -112 c100
-180 87 -168 186 -168 46 0 84 1 84 3 0 2 -37 69 -83 149 l-84 145 39 32 c105
88 106 244 3 329 -56 45 -94 52 -304 52 l-191 0 2 -352z m372 201 c34 -16 47
-57 31 -97 -17 -38 -60 -52 -167 -52 l-78 0 0 80 0 80 95 0 c52 0 105 -5 119
-11z"/>
<path d="M4405 3347 c-3 -6 -4 -165 -3 -352 l3 -340 78 -3 77 -4 0 141 0 141
64 0 65 0 77 -135 c42 -74 79 -135 83 -136 28 -2 171 -3 171 -1 0 2 -36 65
-80 142 -44 77 -80 143 -80 147 0 5 13 16 29 26 37 22 66 68 81 129 25 98 -47
220 -146 247 -58 16 -413 15 -419 -2z m385 -147 c26 -26 34 -63 20 -90 -18
-34 -70 -50 -165 -50 l-85 0 0 80 0 80 105 0 c91 0 108 -3 125 -20z"/>
<path d="M4980 3357 c0 -2 63 -98 140 -213 l141 -209 -2 -140 -2 -140 84 0 84
0 5 150 5 150 133 197 c72 109 132 200 132 203 0 3 -44 5 -99 5 l-98 0 -79
-120 c-44 -66 -81 -119 -84 -119 -3 0 -40 54 -82 120 l-78 119 -100 0 c-55 0
-100 -1 -100 -3z"/>
</g>
</svg>
