<?xml version="1.0" standalone="no"?>
<!DOCTYPE svg PUBLIC "-//W3C//DTD SVG 20010904//EN"
 "http://www.w3.org/TR/2001/REC-SVG-20010904/DTD/svg10.dtd">
<svg version="1.0" xmlns="http://www.w3.org/2000/svg"
 width="600.000000pt" height="600.000000pt" viewBox="0 0 600.000000 600.000000"
 preserveAspectRatio="xMidYMid meet">

<g transform="translate(0.000000,600.000000) scale(0.100000,-0.100000)"
fill="#000000" stroke="none">
<path d="M3317 3306 c-59 -16 -111 -64 -134 -125 -14 -36 -18 -76 -18 -191 0
-139 1 -147 28 -203 36 -71 89 -106 176 -114 141 -13 242 50 253 157 l3 35
-67 3 c-66 3 -68 2 -68 -21 0 -13 -9 -36 -21 -51 -16 -21 -29 -26 -64 -26 -75
0 -94 36 -102 185 -10 182 22 265 101 265 41 0 64 -17 74 -55 8 -29 10 -30 75
-33 64 -3 67 -2 67 20 0 45 -43 112 -87 136 -52 29 -150 37 -216 18z"/>
<path d="M4845 3309 c-55 -12 -108 -58 -135 -116 -18 -38 -24 -71 -28 -163 -8
-199 24 -291 116 -333 40 -19 64 -22 157 -21 71 1 124 6 150 16 l40 15 3 156
3 157 -111 0 -110 0 0 -50 0 -50 45 0 45 0 0 -69 c0 -78 -3 -81 -80 -81 -96 0
-127 71 -117 260 8 147 33 190 111 190 36 0 48 -5 65 -26 12 -15 21 -33 21
-40 0 -10 17 -14 65 -14 63 0 65 1 65 25 0 111 -146 180 -305 144z"/>
<path d="M200 2995 l0 -317 168 4 c145 3 172 6 206 24 53 28 76 73 76 153 0
60 -2 65 -39 102 -26 26 -48 39 -65 39 -16 0 -25 4 -21 10 3 6 15 10 25 10 11
0 34 13 52 29 28 25 32 35 35 92 3 51 0 70 -16 96 -36 58 -67 66 -253 71
l-168 4 0 -317z m285 190 c26 -25 32 -63 15 -95 -12 -23 -61 -40 -116 -40
l-44 0 0 80 0 80 60 0 c51 0 65 -4 85 -25z m11 -259 c31 -35 32 -86 1 -121
-19 -23 -33 -28 -90 -32 l-67 -6 0 98 0 97 66 -4 c58 -4 70 -8 90 -32z"/>
<path d="M862 3063 c-40 -137 -81 -278 -91 -315 l-20 -68 68 0 68 0 19 68 20
67 98 0 99 0 20 -67 20 -68 68 0 c38 0 69 3 69 8 0 4 -39 145 -87 315 l-87
307 -97 0 -96 0 -71 -247z m204 -5 c18 -73 34 -134 34 -135 0 -2 -33 -3 -74
-3 l-74 0 36 140 c19 78 37 139 39 136 3 -2 20 -64 39 -138z"/>
<path d="M1447 3303 c-4 -3 -7 -145 -7 -315 l0 -308 180 0 180 0 0 50 0 50
-110 0 -110 0 0 265 0 265 -63 0 c-35 0 -67 -3 -70 -7z"/>
<path d="M1940 2995 l0 -315 180 0 180 0 0 50 0 50 -115 0 -115 0 0 85 0 85
105 0 105 0 0 55 0 55 -105 0 -105 0 0 75 0 75 114 0 114 0 -2 48 -1 47 -177
3 -178 2 0 -315z"/>
<path d="M2490 2995 l0 -315 61 0 61 0 -3 259 c-2 143 -3 259 -3 258 1 -1 15
-42 32 -92 17 -49 58 -165 92 -257 l62 -168 99 0 99 0 0 315 0 315 -60 0 -60
0 -1 -257 -1 -258 -18 65 c-10 36 -49 151 -87 255 l-70 190 -102 3 -101 3 0
-316z"/>
<path d="M3770 2995 l0 -315 70 0 70 0 -2 313 -3 312 -67 3 -68 3 0 -316z"/>
<path d="M4220 3305 c0 -5 -167 -587 -175 -612 -3 -10 14 -13 64 -13 l68 0 19
68 20 67 99 0 99 0 20 -67 19 -68 68 0 c38 0 69 3 69 8 0 13 -168 600 -175
612 -6 10 -195 15 -195 5z m136 -247 c18 -73 34 -134 34 -135 0 -2 -33 -3 -74
-3 l-74 0 36 140 c19 78 37 139 39 136 3 -2 20 -64 39 -138z"/>
<path d="M5437 3303 c-5 -9 -177 -609 -177 -618 0 -12 131 -5 135 8 2 6 11 38
20 70 l16 57 98 0 98 0 19 -67 20 -68 73 -3 c57 -2 72 0 69 10 -3 7 -35 119
-72 248 -37 129 -76 265 -87 303 l-20 67 -94 0 c-52 0 -96 -3 -98 -7z m133
-243 l36 -140 -74 0 c-72 0 -74 1 -68 23 3 12 18 75 33 139 16 65 30 118 33
118 3 0 21 -63 40 -140z"/>
</g>
</svg>
