<?xml version="1.0" standalone="no"?>
<!DOCTYPE svg PUBLIC "-//W3C//DTD SVG 20010904//EN"
 "http://www.w3.org/TR/2001/REC-SVG-20010904/DTD/svg10.dtd">
<svg version="1.0" xmlns="http://www.w3.org/2000/svg"
 width="600.000000pt" height="600.000000pt" viewBox="0 0 600.000000 600.000000"
 preserveAspectRatio="xMidYMid meet">

<g transform="translate(0.000000,600.000000) scale(0.100000,-0.100000)"
fill="#000000" stroke="none">
<path d="M2547 3929 c-4 -314 -4 -575 -1 -580 3 -5 43 -9 90 -9 l84 0 0 305 0
305 140 0 140 0 0 75 0 75 -140 0 -140 0 0 120 0 120 250 0 250 0 0 80 0 80
-333 0 -334 0 -6 -571z"/>
<path d="M3280 4200 l0 -300 -140 0 -140 0 0 -75 0 -75 53 -2 c28 -1 90 -2
137 -2 l85 -1 3 -122 3 -123 -251 0 -250 0 0 -80 0 -80 335 0 335 0 0 278 c0
153 3 414 7 580 l6 302 -91 0 -92 0 0 -300z"/>
<path d="M520 2167 c0 -365 2 -666 4 -668 2 -2 61 -3 130 -1 l126 3 0 280 0
279 275 0 275 0 0 115 0 115 -272 2 -273 3 -3 144 c-2 109 1 146 10 153 7 4
149 8 316 8 l302 0 0 115 0 115 -445 0 -445 0 0 -663z"/>
<path d="M1580 2167 c0 -365 2 -666 4 -668 2 -2 216 -3 475 -1 l471 2 0 115 0
115 -345 0 -345 0 0 175 0 175 300 0 300 0 0 115 0 115 -299 0 -300 0 -3 140
-3 140 317 0 c174 0 323 3 332 6 13 5 16 25 16 120 l0 114 -460 0 -460 0 0
-663z"/>
<path d="M2720 2166 c0 -366 3 -666 8 -668 4 -2 60 -2 124 0 l118 3 2 469 3
468 250 -466 250 -467 133 -3 132 -3 0 666 0 665 -120 0 -120 0 0 -462 c0
-281 -4 -458 -9 -453 -8 9 -70 123 -339 630 -46 88 -100 188 -119 223 l-35 62
-139 0 -139 0 0 -664z"/>
<path d="M3990 2164 l0 -665 333 3 c394 4 398 5 516 114 126 117 188 282 198
526 15 366 -103 593 -346 668 -57 18 -93 20 -382 20 l-319 0 0 -666z m633 408
c84 -42 130 -133 149 -293 27 -229 -32 -431 -150 -514 l-44 -30 -169 -3 -169
-3 0 429 c0 236 3 432 7 436 5 4 80 6 168 4 144 -3 165 -5 208 -26z"/>
<path d="M5220 2159 c0 -608 1 -671 16 -665 9 3 67 6 130 6 l114 0 0 665 0
665 -130 0 -130 0 0 -671z"/>
</g>
</svg>
