<?xml version="1.0" standalone="no"?>
<!DOCTYPE svg PUBLIC "-//W3C//DTD SVG 20010904//EN"
 "http://www.w3.org/TR/2001/REC-SVG-20010904/DTD/svg10.dtd">
<svg version="1.0" xmlns="http://www.w3.org/2000/svg"
 width="600.000000pt" height="600.000000pt" viewBox="0 0 600.000000 600.000000"
 preserveAspectRatio="xMidYMid meet">

<g transform="translate(0.000000,600.000000) scale(0.100000,-0.100000)"
fill="#000000" stroke="none">
<path d="M3870 5076 l0 -103 78 -6 c190 -15 250 -80 186 -202 -30 -55 -944
-2212 -944 -2226 0 -33 -29 23 -140 268 l-124 276 27 77 c73 213 448 1225 464
1253 30 52 127 95 248 108 55 6 103 13 107 17 8 8 68 169 68 183 0 6 -212 8
-552 7 l-552 -3 -34 -93 c-19 -51 -32 -95 -29 -98 3 -3 29 -9 59 -13 60 -8
113 -33 122 -56 15 -41 -1 -101 -110 -408 -64 -180 -118 -326 -120 -325 -1 2
-93 199 -204 438 -110 239 -223 479 -250 533 -28 54 -50 107 -50 118 0 24 38
49 86 55 92 12 84 1 84 129 l0 115 -540 0 -540 0 0 -115 0 -114 33 -5 c17 -3
56 -8 86 -11 110 -12 201 -59 243 -123 14 -20 101 -201 195 -402 94 -201 270
-575 391 -832 l219 -468 -178 -477 c-99 -263 -184 -494 -189 -514 -32 -116
-172 -170 -485 -185 l-131 -7 -32 -81 c-17 -45 -34 -89 -38 -99 -6 -16 69 -17
1527 -15 l1533 3 89 190 c265 566 327 699 327 707 0 4 -48 8 -108 8 l-107 0
-59 -117 c-167 -338 -372 -545 -575 -583 -52 -10 -1481 -15 -1481 -6 0 11 192
522 199 528 4 4 45 -68 92 -160 l85 -167 206 -3 205 -2 21 52 c11 29 95 229
187 443 91 215 340 800 552 1300 212 501 399 929 415 952 56 82 141 128 274
146 l84 11 0 103 0 103 -460 0 -460 0 0 -104z"/>
<path d="M1568 1236 c-84 -30 -133 -88 -144 -169 -22 -155 154 -275 296 -202
68 35 118 131 106 203 -19 119 -153 206 -258 168z m104 -48 c73 -22 118 -106
97 -183 -27 -100 -139 -147 -219 -92 -55 37 -75 72 -75 132 0 44 5 59 31 92
28 34 76 61 113 62 7 1 31 -4 53 -11z"/>
<path d="M2403 1239 c-38 -11 -73 -52 -73 -86 0 -45 28 -80 84 -107 69 -33 86
-50 86 -87 0 -71 -86 -93 -125 -32 -21 34 -31 38 -54 24 -12 -8 -11 -15 5 -43
56 -96 194 -83 225 22 18 59 -9 106 -86 147 -33 17 -66 37 -73 43 -21 19 -10
54 22 68 24 12 33 12 67 -4 62 -28 81 14 20 45 -30 15 -66 19 -98 10z"/>
<path d="M4129 1236 c-113 -41 -167 -143 -134 -253 50 -170 290 -190 369 -31
52 105 18 216 -84 268 -50 25 -109 32 -151 16z m140 -64 c48 -35 66 -70 66
-127 0 -60 -20 -95 -75 -132 -83 -57 -207 1 -225 106 -7 44 18 114 51 142 48
41 135 46 183 11z"/>
<path d="M4430 1053 l0 -203 25 0 25 0 0 142 0 142 144 -149 145 -150 0 203 1
202 -25 0 -25 0 0 -142 -1 -143 -144 150 -144 150 -1 -202z"/>
<path d="M1250 1045 l0 -195 85 0 c78 0 85 2 85 20 0 18 -7 20 -60 20 l-60 0
0 175 0 175 -25 0 -25 0 0 -195z"/>
<path d="M1864 1225 c-4 -8 -5 -75 -2 -148 3 -109 7 -138 23 -166 57 -96 196
-91 247 10 15 28 18 61 18 177 l0 142 -24 0 -25 0 -3 -151 -3 -151 -28 -24
c-38 -32 -90 -32 -122 1 -26 25 -28 39 -29 250 -1 65 -3 70 -24 73 -13 2 -25
-3 -28 -13z"/>
<path d="M2210 1045 l0 -195 25 0 25 0 0 195 0 195 -25 0 -25 0 0 -195z"/>
<path d="M2720 1230 c0 -11 150 -381 159 -392 5 -5 114 248 169 390 3 10 -3
13 -24 10 -27 -3 -32 -12 -84 -140 -30 -76 -57 -134 -61 -130 -3 4 -30 67 -59
140 -47 118 -55 132 -76 132 -13 0 -24 -4 -24 -10z"/>
<path d="M3080 1233 c-1 -4 -1 -73 0 -153 1 -163 9 -188 70 -222 43 -23 110
-19 149 9 51 38 61 74 61 231 l0 142 -24 0 -25 0 -3 -151 -3 -151 -28 -24
c-27 -23 -68 -31 -101 -18 -33 12 -41 48 -46 194 -5 141 -6 145 -27 148 -13 2
-23 0 -23 -5z"/>
<path d="M3427 1234 c-4 -4 -7 -92 -7 -196 l0 -188 25 0 25 0 0 185 c0 102 1
188 3 193 3 9 -37 15 -46 6z"/>
<path d="M3510 1215 c0 -23 4 -25 45 -25 l45 0 0 -170 0 -170 25 0 25 0 0 170
0 170 90 0 90 0 0 -170 0 -170 25 0 25 0 0 170 0 170 45 0 c41 0 45 2 45 25
l0 25 -230 0 -230 0 0 -25z"/>
</g>
</svg>
