<?xml version="1.0" standalone="no"?>
<!DOCTYPE svg PUBLIC "-//W3C//DTD SVG 20010904//EN"
 "http://www.w3.org/TR/2001/REC-SVG-20010904/DTD/svg10.dtd">
<svg version="1.0" xmlns="http://www.w3.org/2000/svg"
 width="600.000000pt" height="600.000000pt" viewBox="0 0 600.000000 600.000000"
 preserveAspectRatio="xMidYMid meet">

<g transform="translate(0.000000,600.000000) scale(0.100000,-0.100000)"
fill="#000000" stroke="none">
<path d="M504 3999 c-11 -19 14 -26 124 -33 133 -9 186 -29 208 -81 13 -31 14
-151 12 -893 -3 -799 -4 -860 -21 -885 -31 -47 -67 -58 -216 -64 -138 -6 -187
-15 -176 -33 4 -7 256 -10 724 -10 609 0 731 2 801 16 341 64 598 295 704 634
117 371 32 794 -211 1046 -157 163 -371 261 -653 299 -135 19 -1285 22 -1296
4z m1168 -73 c207 -37 372 -129 482 -269 92 -116 172 -312 202 -495 27 -164 3
-408 -56 -582 -70 -203 -210 -381 -353 -449 -113 -54 -201 -65 -492 -66 l-260
0 -3 925 c-1 509 0 931 3 938 6 17 374 16 477 -2z"/>
<path d="M3095 3539 c-77 -21 -116 -117 -77 -188 20 -37 73 -71 110 -71 71 0
132 62 132 134 0 42 -30 100 -58 111 -38 16 -79 21 -107 14z"/>
<path d="M3954 2955 c-244 -53 -407 -271 -391 -524 12 -212 120 -366 297 -425
80 -27 246 -32 334 -12 215 51 368 205 395 401 24 170 -46 376 -157 464 -122
96 -308 133 -478 96z m222 -66 c130 -61 200 -234 192 -472 -6 -184 -47 -276
-151 -340 -59 -38 -148 -47 -211 -23 -87 33 -184 166 -214 296 -44 184 -12
381 78 484 74 84 197 106 306 55z"/>
<path d="M5350 2920 c-46 -24 -117 -100 -160 -172 -19 -32 -38 -58 -42 -58 -5
0 -8 52 -8 115 0 95 -3 117 -15 122 -9 3 -57 -15 -108 -40 -51 -24 -129 -57
-174 -72 -78 -25 -102 -39 -89 -52 3 -3 34 2 69 12 72 19 102 12 112 -28 3
-12 5 -168 3 -345 l-3 -324 -28 -24 c-20 -17 -40 -24 -70 -24 -23 0 -52 -3
-64 -6 -66 -18 4 -24 267 -24 263 0 333 6 268 24 -13 3 -42 6 -65 6 -30 0 -50
7 -70 24 l-28 24 0 259 c0 251 1 259 23 303 41 77 142 170 187 170 15 0 36
-16 59 -45 31 -37 43 -45 71 -45 45 0 75 38 75 95 0 99 -114 156 -210 105z"/>
<path d="M3120 2886 c-47 -24 -124 -56 -172 -72 -51 -16 -88 -34 -88 -41 0
-16 6 -16 66 2 62 19 79 19 98 -1 14 -13 16 -60 16 -354 0 -400 5 -379 -105
-389 -41 -4 -70 -11 -73 -18 -3 -10 58 -13 282 -13 180 0 286 4 286 10 0 11
-24 17 -93 23 -92 9 -87 -17 -87 453 0 227 -3 419 -6 428 -9 24 -31 19 -124
-28z"/>
</g>
</svg>
