<?xml version="1.0" standalone="no"?>
<!DOCTYPE svg PUBLIC "-//W3C//DTD SVG 20010904//EN"
 "http://www.w3.org/TR/2001/REC-SVG-20010904/DTD/svg10.dtd">
<svg version="1.0" xmlns="http://www.w3.org/2000/svg"
 width="600.000000pt" height="600.000000pt" viewBox="0 0 600.000000 600.000000"
 preserveAspectRatio="xMidYMid meet">

<g transform="translate(0.000000,600.000000) scale(0.100000,-0.100000)"
fill="#000000" stroke="none">
<path d="M528 3401 c-73 -24 -113 -49 -169 -108 -84 -88 -119 -175 -119 -299
0 -191 116 -352 292 -405 96 -30 220 -23 303 15 72 33 138 86 173 139 l27 40
-24 16 c-14 9 -46 28 -71 43 l-47 27 -30 -43 c-44 -63 -108 -91 -203 -91 -113
1 -184 46 -229 145 -28 62 -28 168 0 230 83 184 337 202 449 33 l15 -22 63 38
c34 21 65 41 69 44 10 11 -43 82 -90 121 -78 64 -149 90 -257 93 -72 2 -109
-1 -152 -16z"/>
<path d="M1240 2995 l0 -405 80 0 80 0 2 173 3 172 203 3 202 2 0 -175 0 -175
85 0 85 0 0 405 0 405 -85 0 -85 0 0 -150 0 -150 -205 0 -205 0 0 150 0 150
-80 0 -80 0 0 -405z"/>
<path d="M2481 3358 c-10 -24 -82 -187 -161 -363 -78 -176 -151 -339 -161
-363 l-19 -43 91 3 91 3 36 87 37 88 216 0 217 0 38 -90 38 -90 89 0 c50 0 87
4 85 9 -1 5 -82 188 -178 405 l-175 396 -113 0 -113 0 -18 -42z m206 -263 c39
-91 68 -165 65 -165 -100 -5 -282 -3 -282 2 0 4 29 75 65 157 36 83 65 155 65
161 0 33 24 -9 87 -155z"/>
<path d="M3250 2995 l0 -405 75 0 75 0 2 316 3 315 215 -315 215 -316 73 0 72
0 0 405 0 405 -75 0 -75 0 -2 -264 -3 -264 -180 264 -179 264 -108 0 -108 0 0
-405z"/>
<path d="M4300 2995 l0 -405 305 0 306 0 -3 73 -3 72 -227 3 -228 2 0 95 c0
52 3 94 8 94 4 -1 87 -1 185 0 l177 1 0 75 0 75 -185 0 -185 0 0 85 0 85 215
0 215 0 0 75 0 75 -290 0 -290 0 0 -405z"/>
<path d="M5170 2995 l0 -405 295 0 295 0 0 80 0 80 -215 0 -215 0 0 325 0 325
-80 0 -80 0 0 -405z"/>
</g>
</svg>
