<svg version="1.1" id="Layer_1" xmlns="http://www.w3.org/2000/svg" xmlns:xlink="http://www.w3.org/1999/xlink" x="0px" y="0px"
	 width="100%" viewBox="0 0 200 278" enable-background="new 0 0 200 278" xml:space="preserve">
<path fill="rgba(255,255,255,0)" opacity="1.000000" stroke="none"
	d="
M95.000000,279.000000
	C63.349640,279.000000 32.199280,279.000000 1.024460,279.000000
	C1.024460,186.398132 1.024460,93.796249 1.024460,1.097186
	C67.566872,1.097186 134.133926,1.097186 200.850494,1.097186
	C200.850494,93.666473 200.850494,186.333206 200.850494,279.000000
	C165.796494,279.000000 130.648239,279.000000 95.000000,279.000000
M98.008606,205.562027
	C102.255188,206.060730 106.501770,206.559418 111.165230,207.107071
	C111.165230,212.916672 111.043785,218.382339 111.250839,223.835541
	C111.302437,225.194550 112.414268,226.513275 113.038795,227.850525
	C113.687050,226.542969 114.845100,225.254501 114.894844,223.924561
	C115.104500,218.319138 114.983551,212.701385 114.983551,206.955582
	C119.290695,206.588959 122.931274,206.300262 126.567657,205.965942
	C144.640198,204.304489 155.269699,191.581024 153.021042,173.574371
	C152.183731,166.869324 150.562943,160.139954 148.335266,153.758209
	C144.636749,143.162796 144.530090,133.011475 149.349945,122.785919
	C152.428970,116.253616 154.485107,109.522720 153.173615,102.038399
	C152.772842,99.751228 153.659378,97.082260 154.468399,94.767067
	C157.539352,85.978951 155.907303,82.624641 146.943741,80.179764
	C141.652435,78.736534 136.180328,77.792191 131.096970,75.827866
	C128.932251,74.991356 126.333359,72.275192 126.063446,70.143333
	C125.439087,65.212006 123.346611,62.597744 118.573463,61.591465
	C117.421684,61.348644 115.607971,59.820469 115.665993,58.993332
	C116.003967,54.175140 113.617676,48.926643 118.864883,44.821373
	C122.101807,42.288902 121.261375,37.406464 117.989601,34.742035
	C114.849396,32.184761 111.568108,32.235870 108.511040,34.953564
	C105.435516,37.687672 104.577896,42.355007 107.693024,44.620895
	C112.473000,48.097775 111.255676,52.590351 111.537346,57.057922
	C111.718727,59.934635 110.652000,61.367168 107.864471,61.871754
	C103.999260,62.571415 101.435158,64.709045 101.441261,68.893410
	C101.447868,73.416908 98.873642,75.357330 94.881203,76.349182
	C89.236649,77.751480 83.567101,79.121292 78.040466,80.912903
	C71.091545,83.165596 69.607262,86.785461 72.095795,93.573944
	C72.943817,95.887299 74.196846,98.480003 73.852142,100.728508
	C72.380814,110.326218 75.907829,118.766731 79.302765,127.247650
	C82.894096,136.219193 82.817665,144.936981 79.018021,153.892288
	C76.956520,158.751007 75.514557,163.954590 74.443604,169.137054
	C70.357826,188.908524 78.639816,201.913452 98.008606,205.562027
M65.894531,140.847961
	C69.863441,143.665085 73.192429,141.423553 77.307060,139.366776
	C74.268501,138.181946 71.815941,136.409668 69.386765,136.441132
	C63.575871,136.516434 57.774685,137.428421 51.972477,138.030563
	C50.320259,138.202026 48.677986,138.469330 47.031151,138.692703
	C47.042774,139.406631 47.054394,140.120575 47.066017,140.834518
	C53.050091,140.834518 59.034161,140.834518 65.894531,140.847961
M173.388657,138.020859
	C169.421021,138.003189 164.918976,139.168686 161.616974,137.677292
	C157.192566,135.678925 154.672089,138.019577 150.560776,139.555969
	C153.814117,140.717056 156.280365,142.350418 158.725342,142.319153
	C164.509430,142.245178 170.284592,141.392288 176.060684,140.827057
	C177.653961,140.671143 179.237869,140.419388 180.826065,140.211594
	C180.808563,139.650009 180.791061,139.088425 180.773544,138.526840
	C178.628357,138.358185 176.483170,138.189529 173.388657,138.020859
z"/>
<path fill="#52D0D2" opacity="1.000000" stroke="none"
	d="
M97.599945,205.442810
	C78.639816,201.913452 70.357826,188.908524 74.443604,169.137054
	C75.514557,163.954590 76.956520,158.751007 79.018021,153.892288
	C82.817665,144.936981 82.894096,136.219193 79.302765,127.247650
	C75.907829,118.766731 72.380814,110.326218 73.852142,100.728508
	C74.196846,98.480003 72.943817,95.887299 72.095795,93.573944
	C69.607262,86.785461 71.091545,83.165596 78.040466,80.912903
	C83.567101,79.121292 89.236649,77.751480 94.881203,76.349182
	C98.873642,75.357330 101.447868,73.416908 101.441261,68.893410
	C101.435158,64.709045 103.999260,62.571415 107.864471,61.871754
	C110.652000,61.367168 111.718727,59.934635 111.537346,57.057922
	C111.255676,52.590351 112.473000,48.097775 107.693024,44.620895
	C104.577896,42.355007 105.435516,37.687672 108.511040,34.953564
	C111.568108,32.235870 114.849396,32.184761 117.989601,34.742035
	C121.261375,37.406464 122.101807,42.288902 118.864883,44.821373
	C113.617676,48.926643 116.003967,54.175140 115.665993,58.993332
	C115.607971,59.820469 117.421684,61.348644 118.573463,61.591465
	C123.346611,62.597744 125.439087,65.212006 126.063446,70.143333
	C126.333359,72.275192 128.932251,74.991356 131.096970,75.827866
	C136.180328,77.792191 141.652435,78.736534 146.943741,80.179764
	C155.907303,82.624641 157.539352,85.978951 154.468399,94.767067
	C153.659378,97.082260 152.772842,99.751228 153.173615,102.038399
	C154.485107,109.522720 152.428970,116.253616 149.349945,122.785919
	C144.530090,133.011475 144.636749,143.162796 148.335266,153.758209
	C150.562943,160.139954 152.183731,166.869324 153.021042,173.574371
	C155.269699,191.581024 144.640198,204.304489 126.567657,205.965942
	C122.931274,206.300262 119.290695,206.588959 114.983551,206.955582
	C114.983551,212.701385 115.104500,218.319138 114.894844,223.924561
	C114.845100,225.254501 113.687050,226.542969 113.038795,227.850525
	C112.414268,226.513275 111.302437,225.194550 111.250839,223.835541
	C111.043785,218.382339 111.165230,212.916672 111.165230,207.107071
	C106.501770,206.559418 102.255188,206.060730 97.599945,205.442810
M144.624207,125.106155
	C146.371399,118.933601 148.405380,112.823715 149.772354,106.568085
	C150.810715,101.816269 150.622467,96.794365 151.684906,92.050507
	C152.569733,88.099770 152.002899,85.422707 147.947296,84.306229
	C142.826416,82.896477 137.661667,81.629791 132.478821,80.466255
	C127.567169,79.363617 123.244926,77.610229 121.991562,72.905510
	C116.124046,72.905510 110.768929,72.905510 105.076218,72.905510
	C104.097496,77.040314 100.706879,79.069649 96.369102,80.076042
	C90.707932,81.389458 85.040558,82.699501 79.440483,84.245163
	C75.291656,85.390259 74.120766,87.977188 75.583954,92.271523
	C76.791107,95.814407 77.178101,99.655052 77.750893,103.390984
	C78.422043,107.768509 77.838142,112.694359 79.678734,116.464485
	C83.837753,124.983467 82.359856,136.008408 91.124390,142.442184
	C91.188484,142.489227 90.906578,143.007629 90.627686,143.698944
	C89.232536,143.182205 87.826897,142.661591 86.695839,142.242661
	C84.890297,147.546097 83.512405,152.709671 81.401520,157.553833
	C77.406509,166.721741 77.063400,176.351746 78.317657,185.852081
	C79.270622,193.070358 84.502495,197.892151 91.561028,200.075027
	C104.242233,203.996735 117.242165,204.214783 130.025848,201.341614
	C145.483688,197.867401 151.704727,188.547791 149.111816,172.823578
	C147.471069,162.873459 144.443741,153.147110 141.885284,143.360428
	C141.618073,142.338287 140.311752,141.587784 139.792374,141.035446
	C141.312485,135.888092 142.798599,130.855865 144.624207,125.106155
M112.132118,66.451118
	C109.477661,63.444309 107.845192,65.632805 105.853485,67.425766
	C111.809891,71.097755 117.786125,70.728477 120.552498,65.346436
	C117.948685,65.879608 115.344864,66.412781 112.132118,66.451118
M114.169121,43.827194
	C114.939201,42.147724 115.962585,40.515408 116.290535,38.753635
	C116.366783,38.344006 114.002083,36.885578 112.894073,37.018974
	C111.810143,37.149471 109.903053,39.155972 110.081268,39.540970
	C110.832886,41.164669 112.228577,42.490223 114.169121,43.827194
z"/>
<path fill="#6BD7D9" opacity="1.000000" stroke="none"
	d="
M65.456383,140.841248
	C59.034161,140.834518 53.050091,140.834518 47.066017,140.834518
	C47.054394,140.120575 47.042774,139.406631 47.031151,138.692703
	C48.677986,138.469330 50.320259,138.202026 51.972477,138.030563
	C57.774685,137.428421 63.575871,136.516434 69.386765,136.441132
	C71.815941,136.409668 74.268501,138.181946 77.307060,139.366776
	C73.192429,141.423553 69.863441,143.665085 65.456383,140.841248
z"/>
<path fill="#6CD7D9" opacity="1.000000" stroke="none"
	d="
M173.863312,138.020874
	C176.483170,138.189529 178.628357,138.358185 180.773544,138.526840
	C180.791061,139.088425 180.808563,139.650009 180.826065,140.211594
	C179.237869,140.419388 177.653961,140.671143 176.060684,140.827057
	C170.284592,141.392288 164.509430,142.245178 158.725342,142.319153
	C156.280365,142.350418 153.814117,140.717056 150.560776,139.555969
	C154.672089,138.019577 157.192566,135.678925 161.616974,137.677292
	C164.918976,139.168686 169.421021,138.003189 173.863312,138.020874
z"/>
<path fill="#FCFEFE" opacity="1.000000" stroke="none"
	d="
M144.454468,125.464905
	C142.798599,130.855865 141.312485,135.888092 139.792374,141.035446
	C140.311752,141.587784 141.618073,142.338287 141.885284,143.360428
	C144.443741,153.147110 147.471069,162.873459 149.111816,172.823578
	C151.704727,188.547791 145.483688,197.867401 130.025848,201.341614
	C117.242165,204.214783 104.242233,203.996735 91.561028,200.075027
	C84.502495,197.892151 79.270622,193.070358 78.317657,185.852081
	C77.063400,176.351746 77.406509,166.721741 81.401520,157.553833
	C83.512405,152.709671 84.890297,147.546097 86.695839,142.242661
	C87.826897,142.661591 89.232536,143.182205 90.627686,143.698944
	C90.906578,143.007629 91.188484,142.489227 91.124390,142.442184
	C82.359856,136.008408 83.837753,124.983467 79.678734,116.464485
	C77.838142,112.694359 78.422043,107.768509 77.750893,103.390984
	C77.178101,99.655052 76.791107,95.814407 75.583954,92.271523
	C74.120766,87.977188 75.291656,85.390259 79.440483,84.245163
	C85.040558,82.699501 90.707932,81.389458 96.369102,80.076042
	C100.706879,79.069649 104.097496,77.040314 105.076218,72.905510
	C110.768929,72.905510 116.124046,72.905510 121.991562,72.905510
	C123.244926,77.610229 127.567169,79.363617 132.478821,80.466255
	C137.661667,81.629791 142.826416,82.896477 147.947296,84.306229
	C152.002899,85.422707 152.569733,88.099770 151.684906,92.050507
	C150.622467,96.794365 150.810715,101.816269 149.772354,106.568085
	C148.405380,112.823715 146.371399,118.933601 144.454468,125.464905
z"/>
<path fill="#ECFAFA" opacity="1.000000" stroke="none"
	d="
M112.436584,66.698532
	C115.344864,66.412781 117.948685,65.879608 120.552498,65.346436
	C117.786125,70.728477 111.809891,71.097755 105.853485,67.425766
	C107.845192,65.632805 109.477661,63.444309 112.436584,66.698532
z"/>
<path fill="#F6FDFD" opacity="1.000000" stroke="none"
	d="
M113.778893,43.876015
	C112.228577,42.490223 110.832886,41.164669 110.081268,39.540970
	C109.903053,39.155972 111.810143,37.149471 112.894073,37.018974
	C114.002083,36.885578 116.366783,38.344006 116.290535,38.753635
	C115.962585,40.515408 114.939201,42.147724 113.778893,43.876015
z"/>
</svg>