<svg version="1.1" id="Layer_1" xmlns="http://www.w3.org/2000/svg" xmlns:xlink="http://www.w3.org/1999/xlink" x="0px" y="0px"
	 width="100%" viewBox="0 0 589 223" enable-background="new 0 0 589 223" xml:space="preserve">
<path fill="transparent
" opacity="1.000000" stroke="none"
	d="
M370.000000,224.000000
	C246.704468,224.000000 123.908951,224.000000 1.056712,224.000000
	C1.056712,149.727386 1.056712,75.454727 1.056712,1.091031
	C197.212189,1.091031 393.424408,1.091031 589.818359,1.091031
	C589.818359,75.332985 589.818359,149.666443 589.818359,224.000000
	C516.788086,224.000000 443.644043,224.000000 370.000000,224.000000
M216.028458,119.017807
	C216.028458,119.017807 216.041916,119.086243 216.609802,118.812805
	C216.791397,118.218918 216.973007,117.625038 217.699097,116.804779
	C217.808197,116.236656 217.917282,115.668541 218.521240,114.917175
	C218.620773,114.611778 218.720306,114.306374 218.977097,113.576218
	C218.977097,113.576218 219.032944,113.126740 219.652512,112.799927
	C220.043015,111.519402 220.433517,110.238876 221.208252,108.258698
	C224.197433,101.290886 222.363037,94.466858 219.839737,88.034492
	C215.294647,76.448303 206.361023,69.586426 194.093521,68.143066
	C181.490417,66.660217 171.347137,71.865585 164.479828,82.448494
	C163.187958,84.439331 163.262238,89.193008 164.729706,90.696068
	C167.532608,93.566910 171.218597,91.488846 172.787689,88.390251
	C178.338425,77.428833 197.908463,75.266830 206.388443,85.441109
	C214.877075,95.625763 212.807846,111.009132 203.082367,117.922485
	C192.723190,125.286301 180.485825,122.852074 172.588974,111.935661
	C170.393311,108.900436 168.290817,107.569397 165.132019,109.526276
	C161.880066,111.540855 162.527664,114.588432 164.149246,117.334641
	C174.128006,134.234131 199.213608,137.960617 213.539764,121.923622
	C213.734558,121.624451 213.929352,121.325287 214.572571,120.901016
	C214.859375,120.721191 215.011658,120.462257 215.545410,119.930275
	C215.729492,119.623245 215.913574,119.316223 216.028458,119.017807
M349.972229,147.036179
	C349.972229,147.036179 349.908691,147.067459 350.217163,147.676926
	C351.192474,147.466644 352.167755,147.256378 353.559662,146.999466
	C353.559662,146.999466 353.956451,146.864212 354.520050,146.935959
	C354.731506,146.635605 354.942963,146.335236 355.770508,145.682968
	C356.979370,141.141800 359.814056,139.314331 364.551392,139.927567
	C367.333191,140.287628 370.205994,140.115036 373.026276,139.964645
	C376.617340,139.773148 379.222015,140.304733 380.553741,144.492615
	C381.055328,146.069916 384.770203,148.065445 386.256561,147.571655
	C388.864716,146.705139 391.365692,144.407867 389.289948,140.579361
	C388.145477,138.468552 388.123077,135.640152 386.715240,133.812988
	C385.386597,132.088623 382.952301,130.291580 380.923462,130.193130
	C372.624390,129.790359 364.281219,129.772339 355.985168,130.205063
	C353.936096,130.311951 351.610901,132.315170 350.136658,134.058807
	C348.875946,135.549850 348.652527,137.917938 347.307922,140.266129
	C347.527344,141.881500 347.746735,143.496857 348.088715,145.563858
	C348.266418,145.851959 348.523865,146.011047 349.050903,146.569336
	C349.367645,146.746521 349.684387,146.923691 349.972229,147.036179
M330.969666,147.055405
	C330.969666,147.055405 330.899445,147.065094 331.242981,147.702972
	C332.538483,147.479889 333.833954,147.256790 335.861053,146.989212
	C336.571045,145.981995 337.505554,145.065979 337.957306,143.953857
	C344.669952,127.429405 351.315125,110.877579 357.983948,94.335320
	C361.336639,86.018761 364.704803,77.708466 368.430511,68.493744
	C375.906647,86.996834 382.936615,104.422005 389.989075,121.838089
	C393.092499,129.502014 396.045319,137.238770 399.529602,144.727005
	C400.259155,146.294861 403.026215,147.706558 404.849915,147.701157
	C406.112213,147.697433 407.761353,145.309525 408.484619,143.657333
	C408.957001,142.578339 408.295685,140.823959 407.777435,139.516724
	C396.297363,110.559341 384.817657,81.601341 373.110413,52.735722
	C372.446472,51.098667 369.625214,49.068542 368.185181,49.326542
	C366.268066,49.670013 364.000671,51.755951 363.142883,53.660465
	C359.820312,61.037296 356.942627,68.617783 353.999115,76.161377
	C346.627716,95.052612 339.310791,113.965103 331.328644,133.213028
	C330.853546,134.800919 330.378448,136.388809 329.430725,138.117920
	C329.086487,138.327164 328.999359,138.614380 329.035126,139.487869
	C329.076965,139.658035 329.118835,139.828201 329.014618,140.467072
	C329.014618,140.467072 328.914429,140.947662 328.299500,141.282166
	C328.848358,142.886551 329.397247,144.490936 329.958679,146.025009
	C329.958679,146.025009 329.888153,146.013885 330.073303,146.533447
	C330.373901,146.730988 330.674500,146.928543 330.969666,147.055405
M378.020538,121.020782
	C378.020538,121.020782 378.045959,121.085068 378.718536,120.766541
	C381.422516,117.884895 379.288788,115.426262 377.974274,112.140907
	C376.312256,108.109795 374.678802,104.066589 372.978729,100.051575
	C371.722473,97.084602 369.163879,96.077522 366.535400,97.364334
	C364.033417,98.589218 362.534882,100.887306 363.922943,104.148132
	C364.908234,106.462746 365.419861,108.978973 366.154297,111.443459
	C357.072754,113.012939 354.819611,116.122276 359.065979,121.536400
	C359.383362,121.635651 359.700714,121.734901 360.425842,121.980026
	C360.425842,121.980026 360.855835,122.031822 361.325134,122.764580
	C364.879150,122.786751 368.433136,122.808929 372.634583,122.974297
	C373.072632,122.935158 373.510681,122.896019 374.640198,122.982368
	C375.788452,122.336868 376.936707,121.691368 378.020538,121.020782
M286.059998,95.542015
	C286.375092,95.634857 286.690186,95.727707 287.440063,95.955399
	C287.440063,95.955399 287.887909,96.037132 288.240692,96.708397
	C289.487030,96.752762 290.733398,96.797119 292.773163,96.968109
	C293.855743,96.656662 294.929077,96.307228 296.022461,96.040001
	C302.584320,94.436264 306.721375,89.826477 307.019745,84.005524
	C307.312439,78.295570 302.828156,70.477394 297.005585,70.022400
	C290.277802,69.496674 283.497009,69.085655 276.781738,69.437180
	C275.430298,69.507927 273.555389,73.141930 273.324982,75.283958
	C273.211609,76.338516 276.141052,78.204842 277.991028,78.847275
	C279.776062,79.467155 281.943726,78.980370 283.943268,78.988289
	C286.941864,79.000160 290.021606,78.616951 292.906250,79.198448
	C294.443726,79.508362 295.643921,81.491516 296.996368,82.719467
	C295.915283,83.869408 294.930634,85.138062 293.716675,86.124512
	C292.995178,86.710800 291.912720,86.852852 290.219818,87.039429
	C288.788086,87.344925 287.356354,87.650421 285.986298,87.982681
	C285.986298,87.982681 285.962830,87.919685 285.220551,88.026314
	C281.976624,90.744873 282.292053,93.097977 285.959167,95.034294
	C285.959167,95.034294 285.885101,95.024307 286.059998,95.542015
M219.031723,172.767288
	C219.138580,173.817352 219.245453,174.867416 219.318939,175.589554
	C221.476089,175.722031 223.316788,176.148254 225.000534,175.804871
	C225.828491,175.636002 226.365784,174.041931 227.714615,172.750275
	C230.316208,167.646851 228.909821,165.239532 223.607849,164.956085
	C217.587250,164.634262 219.087494,168.646515 219.031723,172.767288
M170.847839,53.096905
	C163.247940,56.748409 156.156525,61.120728 151.060287,68.037384
	C142.594894,79.526649 139.080978,92.177055 140.868973,106.599754
	C142.982986,123.652176 150.935272,137.053848 165.930984,144.740997
	C188.378204,156.247940 216.487366,150.528946 232.440491,128.763138
	C235.506088,124.580536 237.144943,119.237770 238.877731,114.234795
	C239.950089,111.138649 237.438370,108.698227 234.787964,108.743134
	C232.834030,108.776245 230.363678,110.839767 229.100052,112.672096
	C225.994781,117.174950 224.145889,122.688339 220.556625,126.686569
	C209.335632,139.186127 195.037323,142.452621 178.980713,138.557007
	C167.958954,135.882919 160.100479,129.067749 155.042068,119.059898
	C150.763748,110.595421 150.306808,101.750862 151.894135,92.382759
	C155.430939,71.509514 170.292740,60.933651 188.534363,60.158592
	C207.161362,59.367157 221.805145,69.001106 228.888733,86.969856
	C230.242188,90.403137 232.531311,92.595795 235.692123,91.403160
	C239.122543,90.108803 239.883301,86.632317 238.500427,83.009583
	C228.346649,56.409832 198.321320,42.934067 170.847839,53.096905
M262.806274,52.003292
	C256.520721,52.077763 255.025467,53.599945 255.023834,60.014618
	C255.016983,86.835602 255.020401,113.656586 255.021042,140.477570
	C255.021072,141.477081 254.615616,142.845001 255.114120,143.407150
	C256.618439,145.103424 258.375916,147.484467 260.227875,147.669968
	C261.660034,147.813400 264.078918,145.333435 264.807617,143.517517
	C265.811279,141.016449 265.912598,138.042664 265.919220,135.270248
	C265.958221,118.975464 265.848816,102.680359 265.807098,86.385323
	C265.786438,78.319298 265.803497,70.253174 265.803497,61.997211
	C276.138550,61.997211 285.635223,61.650898 295.092926,62.109428
	C302.344543,62.461006 308.374390,65.264519 312.183777,72.347290
	C316.166443,79.752121 315.720703,86.620224 311.850616,93.625954
	C308.230042,100.180054 302.422150,103.226265 295.126709,104.035461
	C290.302185,104.570595 288.156250,108.338135 290.635773,111.986763
	C296.133118,120.076111 301.792419,128.059082 307.543945,135.970367
	C310.270050,139.720169 313.058411,143.536667 316.453156,146.625504
	C317.586914,147.657104 321.042725,147.120056 322.745544,146.121216
	C323.576752,145.633636 323.397980,142.178116 322.651001,140.531006
	C321.458069,137.900528 319.391632,135.670517 317.727112,133.248795
	C313.043213,126.434151 308.376007,119.608063 303.619263,112.665421
	C317.113556,108.212883 324.510254,97.288017 325.100342,83.612549
	C325.850525,66.224823 310.473328,50.794975 293.223755,51.892891
	C283.434692,52.515953 273.573303,52.001842 262.806274,52.003292
M58.472317,92.116631
	C57.314064,100.041710 58.485451,107.664986 60.624741,115.365829
	C68.966019,145.392151 100.647812,154.853928 125.581894,146.141251
	C129.603088,144.736130 131.038208,142.122070 129.671921,138.646088
	C128.306442,135.172134 125.269295,135.801437 122.094841,136.869751
	C113.020248,139.923676 103.772758,140.019821 94.598824,137.205231
	C73.436195,130.712524 64.411484,109.174225 69.389687,89.396881
	C75.196884,66.326149 100.405777,54.079315 121.351311,62.710365
	C125.525192,64.430305 129.104156,63.445698 129.820816,60.094612
	C130.705750,55.956787 128.383408,54.077438 124.475685,52.760582
	C111.297966,48.319847 98.196106,48.587688 85.746727,54.294708
	C70.108429,61.463573 61.161068,74.132057 58.472317,92.116631
M547.983704,58.798508
	C547.019287,57.568741 546.282227,55.599411 545.055664,55.222282
	C530.957214,50.887596 517.041687,47.915394 503.671783,57.983990
	C493.657928,65.525230 488.728943,82.561607 494.363190,93.713181
	C499.667664,104.212044 509.173370,109.298027 519.724609,113.104614
	C522.719666,114.185127 527.785400,115.066765 526.607483,119.217827
	C525.452087,123.289299 520.486572,121.902313 516.942505,121.931465
	C516.641174,121.933945 516.342773,121.665764 516.034546,121.545113
	C511.257080,119.675140 506.394409,117.993629 501.728516,115.878021
	C498.496124,114.412384 495.978729,114.564568 494.098724,117.693039
	C492.222260,120.815498 493.940918,122.471664 496.521393,124.295654
	C503.562805,129.272797 511.477936,131.471893 519.865417,131.918213
	C528.292786,132.366638 535.925537,127.437164 536.961731,121.485069
	C538.262634,114.013222 534.393433,108.661461 525.579590,104.807198
	C520.380554,102.533699 515.267273,99.926353 510.469360,96.906776
	C503.727051,92.663506 500.543579,84.108459 503.213196,76.673347
	C506.004913,68.898140 511.887268,61.621033 520.886963,62.087681
	C527.371582,62.423920 533.852234,63.465206 540.250244,64.648201
	C545.507385,65.620239 547.344238,64.704208 547.983704,58.798508
M525.145813,139.015549
	C521.219788,138.731308 517.187012,138.914062 513.394043,138.047455
	C508.378174,136.901443 503.555756,134.916031 498.639252,133.325302
	C495.197937,132.211853 492.274384,133.400879 491.852905,136.825287
	C491.620850,138.710510 493.344879,141.943558 495.058350,142.776520
	C504.263031,147.251068 513.989319,149.872070 524.414856,149.022629
	C535.014343,148.159042 544.188354,144.479492 550.115967,135.241608
	C556.720520,124.948807 557.082031,110.397293 547.892517,100.234543
	C542.224915,93.966644 535.056458,90.399666 527.627747,87.018555
	C524.906738,85.780106 522.295776,84.300026 519.683655,82.955460
	C521.577698,78.112259 525.026611,78.653297 527.988953,79.134018
	C531.639648,79.726448 535.361145,80.612061 538.713379,82.122543
	C542.540100,83.846848 544.632141,81.959450 545.755432,79.140465
	C547.087158,75.798317 544.917480,72.947937 541.898926,72.200783
	C535.915527,70.719757 529.761719,69.492790 523.626526,69.181381
	C517.471802,68.868980 511.789093,73.503197 510.269379,78.692749
	C508.908020,83.341545 511.224762,90.271126 515.411072,92.656593
	C519.066528,94.739563 522.996338,96.372070 526.889465,98.001579
	C543.057129,104.768707 546.754089,113.388718 542.863892,126.908012
	C540.580200,134.844604 533.534241,137.568283 525.145813,139.015549
M452.500000,149.010483
	C459.821472,149.004623 467.147247,149.143326 474.462433,148.926132
	C477.667969,148.830963 480.953156,147.710815 480.884552,143.727066
	C480.817200,139.813904 478.168823,138.867645 474.422791,138.929382
	C461.779724,139.137711 449.129150,138.878723 436.485382,139.064911
	C432.018799,139.130661 430.797272,137.598557 430.842102,133.092316
	C431.086945,108.467339 430.994568,83.838547 430.920654,59.211361
	C430.909668,55.551022 429.890625,52.238846 425.289032,52.031673
	C420.547791,51.818214 420.135895,55.679855 420.116852,58.657833
	C419.940308,86.279091 419.876312,113.903275 420.137634,141.523224
	C420.188843,146.938614 421.869354,149.105728 428.037811,149.024399
	C435.857239,148.921280 443.679169,149.006470 452.500000,149.010483
M113.943001,68.064621
	C103.093834,67.161766 93.710640,69.137253 85.480804,77.603439
	C76.701454,86.634926 75.235367,97.015450 77.754509,107.923950
	C81.049072,122.190201 91.194832,130.150864 105.671371,131.870010
	C112.615845,132.694702 119.324959,130.647949 125.284279,126.989098
	C126.649719,126.150749 127.743004,123.762039 127.715935,122.107231
	C127.693604,120.742332 125.970192,118.450661 124.751297,118.272171
	C122.653778,117.965019 120.281860,118.750359 118.165291,119.482430
	C105.151222,123.983711 90.518349,120.194122 87.356560,104.858521
	C85.921898,97.899925 88.229439,86.829765 95.252266,82.114418
	C103.703659,76.439865 112.150871,77.265137 120.669579,81.343788
	C124.302010,83.082954 126.510300,80.997314 127.405853,78.572960
	C127.961456,77.068893 126.494026,73.778168 124.959381,72.761398
	C121.924088,70.750351 118.212234,69.760468 113.943001,68.064621
M437.703918,120.841225
	C436.353607,128.534454 438.278931,130.989471 445.660675,130.990128
	C455.159668,130.990997 464.659241,130.932922 474.157349,131.026413
	C477.617981,131.060486 480.801147,130.356827 480.859131,126.405724
	C480.920410,122.228485 477.536285,121.180618 473.957458,121.024872
	C472.460419,120.959717 470.958252,121.014122 469.458405,121.014122
	C462.368317,121.014130 455.278259,121.014130 447.992981,121.014130
	C447.992981,100.139320 447.956940,79.988197 448.023895,59.837414
	C448.037018,55.894718 447.691498,52.254223 442.724304,52.080307
	C437.469116,51.896313 437.799652,56.330574 437.057037,59.726360
	C436.918671,60.359047 437.069885,61.054054 437.080231,61.720409
	C437.382294,81.140686 437.683472,100.560966 437.703918,120.841225
M282.979858,134.516083
	C283.950958,134.846359 285.291199,134.881058 285.831696,135.556107
	C288.778198,139.236115 291.167419,143.452271 294.534515,146.658356
	C295.765778,147.830765 299.436096,147.328308 301.432770,146.392731
	C302.282959,145.994370 302.205200,142.364410 301.617584,140.496002
	C301.013733,138.576141 299.248901,137.030853 298.034882,135.291779
	C292.910614,127.951134 287.940979,120.495377 282.574921,113.336472
	C281.458069,111.846481 278.808411,110.560661 277.019135,110.737633
	C274.231079,111.013405 272.868408,113.258209 272.936768,116.459229
	C273.124847,125.269318 272.707214,134.103119 273.216553,142.887711
	C273.337921,144.981476 276.144409,146.919556 277.715912,148.929230
	C279.471222,147.053238 281.943329,145.448700 282.784790,143.226669
	C283.665955,140.899826 282.981018,137.979950 282.979858,134.516083
M495.623474,174.892593
	C495.895142,176.156403 495.962189,178.415634 496.472107,178.520462
	C499.498779,179.142670 502.628082,179.265915 505.722870,179.556854
	C505.423431,179.015915 505.124023,178.474976 504.824585,177.934036
	C504.996246,175.711853 505.167877,173.489685 505.387177,170.651093
	C503.682861,170.442093 501.583496,170.184647 499.484161,169.927185
	C500.681091,168.970627 501.842224,169.225510 502.810089,168.902054
	C503.871643,168.547302 504.754944,167.659210 505.715942,167.003540
	C504.732025,166.335419 503.811035,165.220306 502.754059,165.071457
	C495.697174,164.077805 494.974457,164.901108 495.965790,172.124557
	C496.055145,172.775772 495.949371,173.453766 495.623474,174.892593
M108.764015,177.907135
	C109.841545,176.580612 110.919075,175.254089 111.887611,174.061737
	C113.541473,175.556442 115.731491,177.535706 118.739861,180.254562
	C119.268700,175.232132 119.816536,171.838425 119.874397,168.436401
	C119.893051,167.339172 118.622810,166.220016 117.942184,165.110901
	C117.449524,166.413040 116.870537,167.690826 116.494202,169.025757
	C116.238602,169.932434 116.267220,170.919220 116.128204,172.261444
	C113.537186,169.306320 111.422218,166.894135 109.307243,164.481964
	C108.911079,164.797745 108.514908,165.113525 108.118736,165.429306
	C108.118736,169.427414 108.118736,173.425507 108.764015,177.907135
M427.308472,176.913864
	C425.521423,176.304749 423.734375,175.695618 421.947327,175.086502
	C422.006744,174.828903 422.066162,174.571304 422.125580,174.313705
	C423.700470,174.099701 425.275391,173.885696 426.850281,173.671707
	C427.042664,173.195267 427.235016,172.718826 427.427399,172.242386
	C425.480438,171.309189 423.533447,170.375992 422.060791,169.670135
	C423.549713,168.787415 425.469879,167.649033 427.390045,166.510635
	C427.074554,165.817719 426.759064,165.124802 426.443573,164.431885
	C423.411133,165.123505 418.109070,165.262253 417.780182,166.612442
	C416.865631,170.366898 418.017395,174.624695 418.352966,178.683685
	C421.476624,178.326065 424.600250,177.968430 427.308472,176.913864
M253.377029,170.996796
	C251.977600,170.898651 250.578171,170.800507 249.178741,170.702362
	C249.102005,170.390793 249.025269,170.079224 248.948532,169.767654
	C251.064316,168.745255 253.180099,167.722870 255.295883,166.700470
	C246.223160,164.301056 246.228134,164.301178 246.009644,172.715530
	C245.992737,173.366516 245.588577,174.108276 245.792725,174.644867
	C246.357697,176.129745 247.122482,178.724655 247.856506,178.741211
	C250.247482,178.795105 253.528000,180.487579 255.514755,176.491074
	C252.923798,176.099030 250.980072,175.804916 249.036346,175.510818
	C250.427139,174.244553 251.909042,174.413605 253.039093,173.861954
	C253.715286,173.531845 253.840836,172.073807 253.377029,170.996796
M372.970032,167.585526
	C372.047272,165.440536 370.802612,163.326736 368.913208,166.579147
	C367.235992,169.466278 366.199066,172.737137 365.011658,175.888412
	C364.730133,176.635498 364.977203,177.581757 364.981140,178.436386
	C365.822571,178.282562 367.016907,178.431030 367.449005,177.926575
	C370.608307,174.238403 372.946716,176.049408 375.761841,180.210815
	C377.474060,174.774658 373.612061,171.906815 372.970032,167.585526
M191.000290,168.030121
	C190.998779,170.015350 190.849930,172.014008 191.029282,173.982758
	C191.319885,177.172531 193.081161,178.951599 196.420517,178.998184
	C199.761124,179.044769 201.599274,177.317566 201.932846,174.131714
	C202.155594,172.004410 202.208420,169.797302 201.869705,167.701477
	C201.718185,166.764084 200.419113,166.012177 199.640823,165.176086
	C199.344696,166.210022 198.953079,167.227509 198.771652,168.281204
	C198.348694,170.737595 198.069077,173.220093 197.567322,175.658264
	C197.534485,175.817825 195.466446,175.826340 195.435791,175.678665
	C194.929733,173.241287 194.599411,170.767456 194.228256,168.302017
	C194.084244,167.345520 193.936584,166.389572 193.790573,165.433365
	C192.873825,166.016907 191.957062,166.600449 191.000290,168.030121
M138.933929,171.309143
	C138.300964,172.615372 137.385712,173.873917 137.153732,175.247849
	C137.037170,175.938278 138.149673,177.517868 138.728882,177.529053
	C141.617447,177.584854 144.513474,177.253464 148.236664,177.002335
	C147.557968,174.622513 146.947449,171.546432 145.761108,168.711273
	C145.156143,167.265488 143.517441,166.252243 142.345993,165.043472
	C141.551239,166.308990 140.744644,167.567291 139.967300,168.843414
	C139.633072,169.392075 139.359573,169.977707 138.933929,171.309143
M338.996124,169.617767
	C338.996124,172.668030 338.996124,175.718292 338.996124,178.768555
	C339.465546,178.877533 339.934937,178.986526 340.404358,179.095520
	C341.138763,177.546005 341.873169,175.996490 342.747986,174.150681
	C346.003937,174.108124 348.240570,172.767410 348.065094,168.577393
	C347.924530,165.220383 346.051605,164.959122 343.459625,164.964447
	C340.822296,164.969879 338.254669,164.761688 338.996124,169.617767
M296.591095,164.994247
	C290.504822,166.644485 290.558533,169.011871 297.068298,175.542435
	C295.284271,175.883469 293.683105,176.189545 292.081909,176.495621
	C292.036560,177.019760 291.991211,177.543900 291.945862,178.068039
	C294.268433,178.363373 296.655823,179.099258 298.886566,178.770844
	C300.026703,178.602997 301.957764,175.904327 301.679901,175.426865
	C300.675049,173.700012 298.844757,172.468536 297.411896,170.968109
	C296.854675,170.384583 296.525391,169.583328 296.092285,168.881256
	C296.777191,168.605026 297.469513,168.092407 298.145142,168.113510
	C298.955017,168.138809 299.750671,168.619446 300.552490,168.902878
	C300.834351,168.370010 301.116180,167.837158 301.398010,167.304291
	C300.069061,166.533646 298.740082,165.762985 296.591095,164.994247
M170.997467,171.725845
	C172.367294,169.731583 173.737106,167.737305 175.413422,165.296814
	C171.262405,165.296814 167.729340,165.296814 163.498367,165.296814
	C165.266068,167.595795 167.163635,169.192703 167.866074,171.206497
	C168.671600,173.515778 168.417130,176.194809 168.623154,178.713211
	C169.233948,178.687439 169.844757,178.661667 170.455566,178.635895
	C170.636047,176.618759 170.816544,174.601608 170.997467,171.725845
M450.792786,168.767502
	C451.815582,168.039795 452.838409,167.312088 455.137878,165.676086
	C450.198853,165.676086 446.682404,165.676086 442.457916,165.676086
	C444.186646,167.704025 446.258392,169.147491 446.816376,171.037781
	C447.519379,173.419357 446.985931,176.165924 446.985931,179.555435
	C451.766602,176.541489 449.056915,172.401337 450.792786,168.767502
M398.452332,175.977142
	C397.960236,175.132797 397.207855,174.341064 397.024567,173.434311
	C396.459900,170.641312 396.112732,167.804321 395.681061,164.984421
	C395.160767,165.039932 394.640472,165.095428 394.120178,165.150925
	C392.077301,169.203262 392.349945,173.767670 393.749451,177.707977
	C394.210144,179.005020 398.865417,178.812225 401.602631,179.300690
	C401.781067,178.778152 401.959503,178.255630 402.137939,177.733093
	C401.185028,177.157211 400.232147,176.581329 398.452332,175.977142
M469.505463,165.132568
	C469.359711,165.918167 469.213989,166.703766 469.068237,167.489365
	C474.107483,167.996307 472.797485,171.823349 473.029266,174.919373
	C473.129150,176.253845 473.609924,177.559784 473.917664,178.878677
	C474.205475,178.863174 474.493286,178.847672 474.781128,178.832153
	C475.972015,174.350845 477.162903,169.869537 478.448730,165.031052
	C475.908691,165.031052 473.113892,165.031052 469.505463,165.132568
z"/>
<path fill="#3B82F6" opacity="1.000000" stroke="none"
	d="
M171.246140,53.057880
	C198.321320,42.934067 228.346649,56.409832 238.500427,83.009583
	C239.883301,86.632317 239.122543,90.108803 235.692123,91.403160
	C232.531311,92.595795 230.242188,90.403137 228.888733,86.969856
	C221.805145,69.001106 207.161362,59.367157 188.534363,60.158592
	C170.292740,60.933651 155.430939,71.509514 151.894135,92.382759
	C150.306808,101.750862 150.763748,110.595421 155.042068,119.059898
	C160.100479,129.067749 167.958954,135.882919 178.980713,138.557007
	C195.037323,142.452621 209.335632,139.186127 220.556625,126.686569
	C224.145889,122.688339 225.994781,117.174950 229.100052,112.672096
	C230.363678,110.839767 232.834030,108.776245 234.787964,108.743134
	C237.438370,108.698227 239.950089,111.138649 238.877731,114.234795
	C237.144943,119.237770 235.506088,124.580536 232.440491,128.763138
	C216.487366,150.528946 188.378204,156.247940 165.930984,144.740997
	C150.935272,137.053848 142.982986,123.652176 140.868973,106.599754
	C139.080978,92.177055 142.594894,79.526649 151.060287,68.037384
	C156.156525,61.120728 163.247940,56.748409 171.246140,53.057880
z"/>
<path fill="#3B82F6" opacity="1.000000" stroke="none"
	d="
M263.275391,52.001579
	C273.573303,52.001842 283.434692,52.515953 293.223755,51.892891
	C310.473328,50.794975 325.850525,66.224823 325.100342,83.612549
	C324.510254,97.288017 317.113556,108.212883 303.619263,112.665421
	C308.376007,119.608063 313.043213,126.434151 317.727112,133.248795
	C319.391632,135.670517 321.458069,137.900528 322.651001,140.531006
	C323.397980,142.178116 323.576752,145.633636 322.745544,146.121216
	C321.042725,147.120056 317.586914,147.657104 316.453156,146.625504
	C313.058411,143.536667 310.270050,139.720169 307.543945,135.970367
	C301.792419,128.059082 296.133118,120.076111 290.635773,111.986763
	C288.156250,108.338135 290.302185,104.570595 295.126709,104.035461
	C302.422150,103.226265 308.230042,100.180054 311.850616,93.625954
	C315.720703,86.620224 316.166443,79.752121 312.183777,72.347290
	C308.374390,65.264519 302.344543,62.461006 295.092926,62.109428
	C285.635223,61.650898 276.138550,61.997211 265.803497,61.997211
	C265.803497,70.253174 265.786438,78.319298 265.807098,86.385323
	C265.848816,102.680359 265.958221,118.975464 265.919220,135.270248
	C265.912598,138.042664 265.811279,141.016449 264.807617,143.517517
	C264.078918,145.333435 261.660034,147.813400 260.227875,147.669968
	C258.375916,147.484467 256.618439,145.103424 255.114120,143.407150
	C254.615616,142.845001 255.021072,141.477081 255.021042,140.477570
	C255.020401,113.656586 255.016983,86.835602 255.023834,60.014618
	C255.025467,53.599945 256.520721,52.077763 263.275391,52.001579
z"/>
<path fill="#3B82F6" opacity="1.000000" stroke="none"
	d="
M329.169373,138.979584
	C328.999359,138.614380 329.086487,138.327164 329.967804,137.951904
	C330.993927,136.146957 331.482971,134.508011 331.972046,132.869064
	C339.310791,113.965103 346.627716,95.052612 353.999115,76.161377
	C356.942627,68.617783 359.820312,61.037296 363.142883,53.660465
	C364.000671,51.755951 366.268066,49.670013 368.185181,49.326542
	C369.625214,49.068542 372.446472,51.098667 373.110413,52.735722
	C384.817657,81.601341 396.297363,110.559341 407.777435,139.516724
	C408.295685,140.823959 408.957001,142.578339 408.484619,143.657333
	C407.761353,145.309525 406.112213,147.697433 404.849915,147.701157
	C403.026215,147.706558 400.259155,146.294861 399.529602,144.727005
	C396.045319,137.238770 393.092499,129.502014 389.989075,121.838089
	C382.936615,104.422005 375.906647,86.996834 368.430511,68.493744
	C364.704803,77.708466 361.336639,86.018761 357.983948,94.335320
	C351.315125,110.877579 344.669952,127.429405 337.957306,143.953857
	C337.505554,145.065979 336.571045,145.981995 335.071808,147.002930
	C333.154846,147.032806 332.027161,147.048950 330.899445,147.065094
	C330.899445,147.065094 330.969666,147.055405 330.813782,146.883789
	C330.401306,146.479416 330.144745,146.246643 329.888153,146.013885
	C329.888153,146.013885 329.958679,146.025009 329.960052,145.669312
	C329.612427,143.858292 329.263428,142.402969 328.914429,140.947662
	C328.914429,140.947662 329.014618,140.467072 329.166870,140.114929
	C329.421722,139.478500 329.371826,139.217438 329.169373,138.979584
z"/>
<path fill="#3B82F6" opacity="1.000000" stroke="none"
	d="
M58.695827,91.724823
	C61.161068,74.132057 70.108429,61.463573 85.746727,54.294708
	C98.196106,48.587688 111.297966,48.319847 124.475685,52.760582
	C128.383408,54.077438 130.705750,55.956787 129.820816,60.094612
	C129.104156,63.445698 125.525192,64.430305 121.351311,62.710365
	C100.405777,54.079315 75.196884,66.326149 69.389687,89.396881
	C64.411484,109.174225 73.436195,130.712524 94.598824,137.205231
	C103.772758,140.019821 113.020248,139.923676 122.094841,136.869751
	C125.269295,135.801437 128.306442,135.172134 129.671921,138.646088
	C131.038208,142.122070 129.603088,144.736130 125.581894,146.141251
	C100.647812,154.853928 68.966019,145.392151 60.624741,115.365829
	C58.485451,107.664986 57.314064,100.041710 58.695827,91.724823
z"/>
<path fill="#3B82F6" opacity="1.000000" stroke="none"
	d="
M547.986572,59.207436
	C547.344238,64.704208 545.507385,65.620239 540.250244,64.648201
	C533.852234,63.465206 527.371582,62.423920 520.886963,62.087681
	C511.887268,61.621033 506.004913,68.898140 503.213196,76.673347
	C500.543579,84.108459 503.727051,92.663506 510.469360,96.906776
	C515.267273,99.926353 520.380554,102.533699 525.579590,104.807198
	C534.393433,108.661461 538.262634,114.013222 536.961731,121.485069
	C535.925537,127.437164 528.292786,132.366638 519.865417,131.918213
	C511.477936,131.471893 503.562805,129.272797 496.521393,124.295654
	C493.940918,122.471664 492.222260,120.815498 494.098724,117.693039
	C495.978729,114.564568 498.496124,114.412384 501.728516,115.878021
	C506.394409,117.993629 511.257080,119.675140 516.034546,121.545113
	C516.342773,121.665764 516.641174,121.933945 516.942505,121.931465
	C520.486572,121.902313 525.452087,123.289299 526.607483,119.217827
	C527.785400,115.066765 522.719666,114.185127 519.724609,113.104614
	C509.173370,109.298027 499.667664,104.212044 494.363190,93.713181
	C488.728943,82.561607 493.657928,65.525230 503.671783,57.983990
	C517.041687,47.915394 530.957214,50.887596 545.055664,55.222282
	C546.282227,55.599411 547.019287,57.568741 547.986572,59.207436
z"/>
<path fill="#3B82F6" opacity="1.000000" stroke="none"
	d="
M525.598022,139.014450
	C533.534241,137.568283 540.580200,134.844604 542.863892,126.908012
	C546.754089,113.388718 543.057129,104.768707 526.889465,98.001579
	C522.996338,96.372070 519.066528,94.739563 515.411072,92.656593
	C511.224762,90.271126 508.908020,83.341545 510.269379,78.692749
	C511.789093,73.503197 517.471802,68.868980 523.626526,69.181381
	C529.761719,69.492790 535.915527,70.719757 541.898926,72.200783
	C544.917480,72.947937 547.087158,75.798317 545.755432,79.140465
	C544.632141,81.959450 542.540100,83.846848 538.713379,82.122543
	C535.361145,80.612061 531.639648,79.726448 527.988953,79.134018
	C525.026611,78.653297 521.577698,78.112259 519.683655,82.955460
	C522.295776,84.300026 524.906738,85.780106 527.627747,87.018555
	C535.056458,90.399666 542.224915,93.966644 547.892517,100.234543
	C557.082031,110.397293 556.720520,124.948807 550.115967,135.241608
	C544.188354,144.479492 535.014343,148.159042 524.414856,149.022629
	C513.989319,149.872070 504.263031,147.251068 495.058350,142.776520
	C493.344879,141.943558 491.620850,138.710510 491.852905,136.825287
	C492.274384,133.400879 495.197937,132.211853 498.639252,133.325302
	C503.555756,134.916031 508.378174,136.901443 513.394043,138.047455
	C517.187012,138.914062 521.219788,138.731308 525.598022,139.014450
z"/>
<path fill="#3B82F6" opacity="1.000000" stroke="none"
	d="
M452.000000,149.010468
	C443.679169,149.006470 435.857239,148.921280 428.037811,149.024399
	C421.869354,149.105728 420.188843,146.938614 420.137634,141.523224
	C419.876312,113.903275 419.940308,86.279091 420.116852,58.657833
	C420.135895,55.679855 420.547791,51.818214 425.289032,52.031673
	C429.890625,52.238846 430.909668,55.551022 430.920654,59.211361
	C430.994568,83.838547 431.086945,108.467339 430.842102,133.092316
	C430.797272,137.598557 432.018799,139.130661 436.485382,139.064911
	C449.129150,138.878723 461.779724,139.137711 474.422791,138.929382
	C478.168823,138.867645 480.817200,139.813904 480.884552,143.727066
	C480.953156,147.710815 477.667969,148.830963 474.462433,148.926132
	C467.147247,149.143326 459.821472,149.004623 452.000000,149.010468
z"/>
<path fill="#3B82F6" opacity="1.000000" stroke="none"
	d="
M215.029404,120.124207
	C215.011658,120.462257 214.859375,120.721191 214.142410,121.121841
	C213.484909,121.602730 213.257568,121.862785 213.030228,122.122833
	C199.213608,137.960617 174.128006,134.234131 164.149246,117.334641
	C162.527664,114.588432 161.880066,111.540855 165.132019,109.526276
	C168.290817,107.569397 170.393311,108.900436 172.588974,111.935661
	C180.485825,122.852074 192.723190,125.286301 203.082367,117.922485
	C212.807846,111.009132 214.877075,95.625763 206.388443,85.441109
	C197.908463,75.266830 178.338425,77.428833 172.787689,88.390251
	C171.218597,91.488846 167.532608,93.566910 164.729706,90.696068
	C163.262238,89.193008 163.187958,84.439331 164.479828,82.448494
	C171.347137,71.865585 181.490417,66.660217 194.093521,68.143066
	C206.361023,69.586426 215.294647,76.448303 219.839737,88.034492
	C222.363037,94.466858 224.197433,101.290886 220.713821,108.773224
	C219.823898,110.567413 219.428421,111.847076 219.032944,113.126740
	C219.032944,113.126740 218.977097,113.576218 218.745102,113.956192
	C218.323242,114.573326 218.160995,114.828079 218.026367,115.100418
	C217.917282,115.668541 217.808197,116.236656 217.211945,117.126579
	C216.497162,117.994331 216.269547,118.540291 216.041916,119.086243
	C216.041916,119.086243 216.028458,119.017807 215.860809,119.175949
	C215.471893,119.597466 215.250656,119.860840 215.029404,120.124207
z"/>
<path fill="#3B82F6" opacity="1.000000" stroke="none"
	d="
M114.361542,68.206512
	C118.212234,69.760468 121.924088,70.750351 124.959381,72.761398
	C126.494026,73.778168 127.961456,77.068893 127.405853,78.572960
	C126.510300,80.997314 124.302010,83.082954 120.669579,81.343788
	C112.150871,77.265137 103.703659,76.439865 95.252266,82.114418
	C88.229439,86.829765 85.921898,97.899925 87.356560,104.858521
	C90.518349,120.194122 105.151222,123.983711 118.165291,119.482430
	C120.281860,118.750359 122.653778,117.965019 124.751297,118.272171
	C125.970192,118.450661 127.693604,120.742332 127.715935,122.107231
	C127.743004,123.762039 126.649719,126.150749 125.284279,126.989098
	C119.324959,130.647949 112.615845,132.694702 105.671371,131.870010
	C91.194832,130.150864 81.049072,122.190201 77.754509,107.923950
	C75.235367,97.015450 76.701454,86.634926 85.480804,77.603439
	C93.710640,69.137253 103.093834,67.161766 114.361542,68.206512
z"/>
<path fill="#3B82F6" opacity="1.000000" stroke="none"
	d="
M437.844360,120.411240
	C437.683472,100.560966 437.382294,81.140686 437.080231,61.720409
	C437.069885,61.054054 436.918671,60.359047 437.057037,59.726360
	C437.799652,56.330574 437.469116,51.896313 442.724304,52.080307
	C447.691498,52.254223 448.037018,55.894718 448.023895,59.837414
	C447.956940,79.988197 447.992981,100.139320 447.992981,121.014130
	C455.278259,121.014130 462.368317,121.014130 469.458405,121.014122
	C470.958252,121.014122 472.460419,120.959717 473.957458,121.024872
	C477.536285,121.180618 480.920410,122.228485 480.859131,126.405724
	C480.801147,130.356827 477.617981,131.060486 474.157349,131.026413
	C464.659241,130.932922 455.159668,130.990997 445.660675,130.990128
	C438.278931,130.989471 436.353607,128.534454 437.844360,120.411240
z"/>
<path fill="#3B82F6" opacity="1.000000" stroke="none"
	d="
M282.980225,134.917679
	C282.981018,137.979950 283.665955,140.899826 282.784790,143.226669
	C281.943329,145.448700 279.471222,147.053238 277.715912,148.929230
	C276.144409,146.919556 273.337921,144.981476 273.216553,142.887711
	C272.707214,134.103119 273.124847,125.269318 272.936768,116.459229
	C272.868408,113.258209 274.231079,111.013405 277.019135,110.737633
	C278.808411,110.560661 281.458069,111.846481 282.574921,113.336472
	C287.940979,120.495377 292.910614,127.951134 298.034882,135.291779
	C299.248901,137.030853 301.013733,138.576141 301.617584,140.496002
	C302.205200,142.364410 302.282959,145.994370 301.432770,146.392731
	C299.436096,147.328308 295.765778,147.830765 294.534515,146.658356
	C291.167419,143.452271 288.778198,139.236115 285.831696,135.556107
	C285.291199,134.881058 283.950958,134.846359 282.980225,134.917679
z"/>
<path fill="#3B82F6" opacity="1.000000" stroke="none"
	d="
M287.887909,96.037132
	C287.887909,96.037132 287.440063,95.955399 287.053223,95.732193
	C286.423401,95.319351 286.162964,95.157791 285.885101,95.024307
	C285.885101,95.024307 285.959167,95.034294 285.899475,94.706848
	C285.880798,92.226166 285.921814,90.072929 285.962830,87.919685
	C285.962830,87.919685 285.986298,87.982681 286.332245,87.980621
	C288.116302,87.717255 289.554443,87.455940 290.992554,87.194633
	C291.912720,86.852852 292.995178,86.710800 293.716675,86.124512
	C294.930634,85.138062 295.915283,83.869408 296.996368,82.719467
	C295.643921,81.491516 294.443726,79.508362 292.906250,79.198448
	C290.021606,78.616951 286.941864,79.000160 283.943268,78.988289
	C281.943726,78.980370 279.776062,79.467155 277.991028,78.847275
	C276.141052,78.204842 273.211609,76.338516 273.324982,75.283958
	C273.555389,73.141930 275.430298,69.507927 276.781738,69.437180
	C283.497009,69.085655 290.277802,69.496674 297.005585,70.022400
	C302.828156,70.477394 307.312439,78.295570 307.019745,84.005524
	C306.721375,89.826477 302.584320,94.436264 296.022461,96.040001
	C294.929077,96.307228 293.855743,96.656662 292.071289,96.728958
	C290.208923,96.338921 289.048431,96.188026 287.887909,96.037132
z"/>
<path fill="#3B82F6" opacity="1.000000" stroke="none"
	d="
M348.861023,146.041107
	C348.523865,146.011047 348.266418,145.851959 348.038544,144.902740
	C347.982361,142.793777 347.976349,141.345932 347.970337,139.898102
	C348.652527,137.917938 348.875946,135.549850 350.136658,134.058807
	C351.610901,132.315170 353.936096,130.311951 355.985168,130.205063
	C364.281219,129.772339 372.624390,129.790359 380.923462,130.193130
	C382.952301,130.291580 385.386597,132.088623 386.715240,133.812988
	C388.123077,135.640152 388.145477,138.468552 389.289948,140.579361
	C391.365692,144.407867 388.864716,146.705139 386.256561,147.571655
	C384.770203,148.065445 381.055328,146.069916 380.553741,144.492615
	C379.222015,140.304733 376.617340,139.773148 373.026276,139.964645
	C370.205994,140.115036 367.333191,140.287628 364.551392,139.927567
	C359.814056,139.314331 356.979370,141.141800 355.245178,145.970276
	C354.437164,146.424286 354.182709,146.626495 353.956451,146.864212
	C353.956451,146.864212 353.559662,146.999466 352.946838,147.006927
	C351.525543,147.032074 350.717133,147.049774 349.908691,147.067459
	C349.908691,147.067459 349.972229,147.036179 349.821350,146.865891
	C349.400635,146.477448 349.130829,146.259277 348.861023,146.041107
z"/>
<path fill="#3B82F6" opacity="1.000000" stroke="none"
	d="
M373.948730,122.856888
	C373.510681,122.896019 373.072632,122.935158 371.949707,122.719818
	C367.795166,122.320839 364.325500,122.176331 360.855835,122.031822
	C360.855835,122.031822 360.425842,121.980026 360.046082,121.749023
	C359.416504,121.323967 359.147705,121.161362 358.859894,121.030212
	C354.819611,116.122276 357.072754,113.012939 366.154297,111.443459
	C365.419861,108.978973 364.908234,106.462746 363.922943,104.148132
	C362.534882,100.887306 364.033417,98.589218 366.535400,97.364334
	C369.163879,96.077522 371.722473,97.084602 372.978729,100.051575
	C374.678802,104.066589 376.312256,108.109795 377.997681,112.971420
	C378.029388,116.229637 378.037689,118.657356 378.045959,121.085068
	C378.045959,121.085068 378.020538,121.020782 377.695282,121.031715
	C376.229584,121.647392 375.089172,122.252144 373.948730,122.856888
z"/>
<path fill="#3B82F6" opacity="1.000000" stroke="none"
	d="
M495.778870,174.505951
	C495.949371,173.453766 496.055145,172.775772 495.965790,172.124557
	C494.974457,164.901108 495.697174,164.077805 502.754059,165.071457
	C503.811035,165.220306 504.732025,166.335419 505.715942,167.003525
	C504.754944,167.659210 503.871643,168.547302 502.810089,168.902054
	C501.842224,169.225510 500.681091,168.970627 499.484161,169.927185
	C501.583496,170.184647 503.682861,170.442093 505.387177,170.651093
	C505.167877,173.489685 504.996246,175.711853 504.824585,177.934036
	C505.124023,178.474976 505.423431,179.015915 505.722870,179.556854
	C502.628082,179.265915 499.498779,179.142670 496.472107,178.520462
	C495.962189,178.415634 495.895142,176.156403 495.778870,174.505951
z"/>
<path fill="#3B82F6" opacity="1.000000" stroke="none"
	d="
M108.441376,177.665375
	C108.118736,173.425507 108.118736,169.427414 108.118736,165.429306
	C108.514908,165.113525 108.911079,164.797745 109.307243,164.481964
	C111.422218,166.894135 113.537186,169.306320 116.128204,172.261444
	C116.267220,170.919220 116.238602,169.932434 116.494202,169.025757
	C116.870537,167.690826 117.449524,166.413040 117.942184,165.110901
	C118.622810,166.220016 119.893051,167.339172 119.874397,168.436401
	C119.816536,171.838425 119.268700,175.232132 118.739861,180.254562
	C115.731491,177.535706 113.541473,175.556442 111.887611,174.061737
	C110.919075,175.254089 109.841545,176.580612 108.441376,177.665375
z"/>
<path fill="#3B82F6" opacity="1.000000" stroke="none"
	d="
M427.516174,177.262329
	C424.600250,177.968430 421.476624,178.326065 418.352966,178.683685
	C418.017395,174.624695 416.865631,170.366898 417.780182,166.612442
	C418.109070,165.262253 423.411133,165.123505 426.443573,164.431885
	C426.759064,165.124802 427.074554,165.817719 427.390045,166.510635
	C425.469879,167.649033 423.549713,168.787415 422.060791,169.670135
	C423.533447,170.375992 425.480438,171.309189 427.427399,172.242386
	C427.235016,172.718826 427.042664,173.195267 426.850281,173.671707
	C425.275391,173.885696 423.700470,174.099701 422.125580,174.313705
	C422.066162,174.571304 422.006744,174.828903 421.947327,175.086502
	C423.734375,175.695618 425.521423,176.304749 427.516174,177.262329
z"/>
<path fill="#3B82F6" opacity="1.000000" stroke="none"
	d="
M253.795456,171.059769
	C253.840836,172.073807 253.715286,173.531845 253.039093,173.861954
	C251.909042,174.413605 250.427139,174.244553 249.036346,175.510818
	C250.980072,175.804916 252.923798,176.099030 255.514755,176.491074
	C253.528000,180.487579 250.247482,178.795105 247.856506,178.741211
	C247.122482,178.724655 246.357697,176.129745 245.792725,174.644867
	C245.588577,174.108276 245.992737,173.366516 246.009644,172.715530
	C246.228134,164.301178 246.223160,164.301056 255.295883,166.700470
	C253.180099,167.722870 251.064316,168.745255 248.948532,169.767654
	C249.025269,170.079224 249.102005,170.390793 249.178741,170.702362
	C250.578171,170.800507 251.977600,170.898651 253.795456,171.059769
z"/>
<path fill="#3B82F6" opacity="1.000000" stroke="none"
	d="
M373.020325,167.973877
	C373.612061,171.906815 377.474060,174.774658 375.761841,180.210815
	C372.946716,176.049408 370.608307,174.238403 367.449005,177.926575
	C367.016907,178.431030 365.822571,178.282562 364.981140,178.436386
	C364.977203,177.581757 364.730133,176.635498 365.011658,175.888412
	C366.199066,172.737137 367.235992,169.466278 368.913208,166.579147
	C370.802612,163.326736 372.047272,165.440536 373.020325,167.973877
z"/>
<path fill="#3B82F6" opacity="1.000000" stroke="none"
	d="
M191.020294,167.607056
	C191.957062,166.600449 192.873825,166.016907 193.790588,165.433365
	C193.936584,166.389572 194.084244,167.345520 194.228256,168.302017
	C194.599411,170.767456 194.929733,173.241287 195.435791,175.678665
	C195.466446,175.826340 197.534485,175.817825 197.567322,175.658264
	C198.069077,173.220093 198.348694,170.737595 198.771652,168.281204
	C198.953079,167.227509 199.344696,166.210022 199.640823,165.176086
	C200.419113,166.012177 201.718185,166.764084 201.869705,167.701477
	C202.208420,169.797302 202.155594,172.004410 201.932846,174.131714
	C201.599274,177.317566 199.761124,179.044769 196.420517,178.998184
	C193.081161,178.951599 191.319885,177.172531 191.029282,173.982758
	C190.849930,172.014008 190.998779,170.015350 191.020294,167.607056
z"/>
<path fill="#3B82F6" opacity="1.000000" stroke="none"
	d="
M138.996216,170.927856
	C139.359573,169.977707 139.633072,169.392075 139.967300,168.843414
	C140.744644,167.567291 141.551239,166.308990 142.345993,165.043472
	C143.517441,166.252243 145.156143,167.265488 145.761108,168.711273
	C146.947449,171.546432 147.557968,174.622513 148.236664,177.002335
	C144.513474,177.253464 141.617447,177.584854 138.728882,177.529053
	C138.149673,177.517868 137.037170,175.938278 137.153732,175.247849
	C137.385712,173.873917 138.300964,172.615372 138.996216,170.927856
z"/>
<path fill="#3B82F6" opacity="1.000000" stroke="none"
	d="
M338.996307,169.153549
	C338.254669,164.761688 340.822296,164.969879 343.459625,164.964447
	C346.051605,164.959122 347.924530,165.220383 348.065094,168.577393
	C348.240570,172.767410 346.003937,174.108124 342.747986,174.150681
	C341.873169,175.996490 341.138763,177.546005 340.404358,179.095520
	C339.934937,178.986526 339.465546,178.877533 338.996124,178.768555
	C338.996124,175.718292 338.996124,172.668030 338.996307,169.153549
z"/>
<path fill="#3B82F6" opacity="1.000000" stroke="none"
	d="
M297.001099,164.993286
	C298.740082,165.762985 300.069061,166.533646 301.398010,167.304291
	C301.116180,167.837158 300.834351,168.370010 300.552490,168.902878
	C299.750671,168.619446 298.955017,168.138809 298.145142,168.113510
	C297.469513,168.092407 296.777191,168.605026 296.092285,168.881256
	C296.525391,169.583328 296.854675,170.384583 297.411896,170.968109
	C298.844757,172.468536 300.675049,173.700012 301.679901,175.426865
	C301.957764,175.904327 300.026703,178.602997 298.886566,178.770844
	C296.655823,179.099258 294.268433,178.363373 291.945862,178.068039
	C291.991211,177.543900 292.036560,177.019760 292.081909,176.495621
	C293.683105,176.189545 295.284271,175.883469 297.068298,175.542435
	C290.558533,169.011871 290.504822,166.644485 297.001099,164.993286
z"/>
<path fill="#3B82F6" opacity="1.000000" stroke="none"
	d="
M170.997253,172.155151
	C170.816544,174.601608 170.636047,176.618759 170.455566,178.635895
	C169.844757,178.661667 169.233948,178.687439 168.623154,178.713211
	C168.417130,176.194809 168.671600,173.515778 167.866074,171.206497
	C167.163635,169.192703 165.266068,167.595795 163.498367,165.296814
	C167.729340,165.296814 171.262405,165.296814 175.413422,165.296814
	C173.737106,167.737305 172.367294,169.731583 170.997253,172.155151
z"/>
<path fill="#3B82F6" opacity="1.000000" stroke="none"
	d="
M450.496490,169.054291
	C449.056915,172.401337 451.766602,176.541489 446.985931,179.555435
	C446.985931,176.165924 447.519379,173.419357 446.816376,171.037781
	C446.258392,169.147491 444.186646,167.704025 442.457916,165.676086
	C446.682404,165.676086 450.198853,165.676086 455.137878,165.676086
	C452.838409,167.312088 451.815582,168.039795 450.496490,169.054291
z"/>
<path fill="#3B82F6" opacity="1.000000" stroke="none"
	d="
M398.865784,175.991287
	C400.232147,176.581329 401.185028,177.157211 402.137939,177.733093
	C401.959503,178.255630 401.781067,178.778152 401.602631,179.300690
	C398.865417,178.812225 394.210144,179.005020 393.749451,177.707977
	C392.349945,173.767670 392.077301,169.203262 394.120178,165.150925
	C394.640472,165.095428 395.160767,165.039932 395.681061,164.984421
	C396.112732,167.804321 396.459900,170.641312 397.024567,173.434311
	C397.207855,174.341064 397.960236,175.132797 398.865784,175.991287
z"/>
<path fill="#3B82F6" opacity="1.000000" stroke="none"
	d="
M469.912262,165.081818
	C473.113892,165.031052 475.908691,165.031052 478.448730,165.031052
	C477.162903,169.869537 475.972015,174.350845 474.781128,178.832153
	C474.493286,178.847672 474.205475,178.863174 473.917664,178.878677
	C473.609924,177.559784 473.129150,176.253845 473.029266,174.919373
	C472.797485,171.823349 474.107483,167.996307 469.068237,167.489365
	C469.213989,166.703766 469.359711,165.918167 469.912262,165.081818
z"/>
<path fill="#3B82F6" opacity="1.000000" stroke="none"
	d="
M219.179535,171.960358
	C219.087494,168.646515 217.587250,164.634262 223.607849,164.956085
	C228.909821,165.239532 230.316208,167.646851 227.366180,172.545471
	C226.842316,170.993195 226.666885,169.645706 226.654266,169.548767
	C223.857285,170.451157 221.518402,171.205750 219.179535,171.960358
z"/>
<path fill="#3B82F6" opacity="1.000000" stroke="none"
	d="
M219.105621,172.363815
	C221.518402,171.205750 223.857285,170.451157 226.654266,169.548767
	C226.666885,169.645706 226.842316,170.993195 227.026184,172.716736
	C226.365784,174.041931 225.828491,175.636002 225.000534,175.804871
	C223.316788,176.148254 221.476089,175.722031 219.318939,175.589554
	C219.245453,174.867416 219.138580,173.817352 219.105621,172.363815
z"/>
<path fill="#3B82F6" opacity="1.000000" stroke="none"
	d="
M285.591675,87.973000
	C285.921814,90.072929 285.880798,92.226166 285.893738,94.743774
	C282.292053,93.097977 281.976624,90.744873 285.591675,87.973000
z"/>
<path fill="#3B82F6" opacity="1.000000" stroke="none"
	d="
M378.382263,120.925804
	C378.037689,118.657356 378.029388,116.229637 378.025513,113.346527
	C379.288788,115.426262 381.422516,117.884895 378.382263,120.925804
z"/>
<path fill="#3B82F6" opacity="1.000000" stroke="none"
	d="
M361.090485,122.398201
	C364.325500,122.176331 367.795166,122.320839 371.625977,122.648224
	C368.433136,122.808929 364.879150,122.786751 361.090485,122.398201
z"/>
<path fill="#3B82F6" opacity="1.000000" stroke="none"
	d="
M331.650330,133.041046
	C331.482971,134.508011 330.993927,136.146957 330.204102,137.881302
	C330.378448,136.388809 330.853546,134.800919 331.650330,133.041046
z"/>
<path fill="#3B82F6" opacity="1.000000" stroke="none"
	d="
M328.606964,141.114914
	C329.263428,142.402969 329.612427,143.858292 329.953796,145.704453
	C329.397247,144.490936 328.848358,142.886551 328.606964,141.114914
z"/>
<path fill="#3B82F6" opacity="1.000000" stroke="none"
	d="
M374.294464,122.919632
	C375.089172,122.252144 376.229584,121.647392 377.727478,121.044258
	C376.936707,121.691368 375.788452,122.336868 374.294464,122.919632
z"/>
<path fill="#3B82F6" opacity="1.000000" stroke="none"
	d="
M219.342728,112.963333
	C219.428421,111.847076 219.823898,110.567413 220.521698,109.123055
	C220.433517,110.238876 220.043015,111.519402 219.342728,112.963333
z"/>
<path fill="#3B82F6" opacity="1.000000" stroke="none"
	d="
M290.606201,87.117035
	C289.554443,87.455940 288.116302,87.717255 286.301392,87.967239
	C287.356354,87.650421 288.788086,87.344925 290.606201,87.117035
z"/>
<path fill="#3B82F6" opacity="1.000000" stroke="none"
	d="
M347.639130,140.082123
	C347.976349,141.345932 347.982361,142.793777 347.977264,144.676910
	C347.746735,143.496857 347.527344,141.881500 347.639130,140.082123
z"/>
<path fill="#3B82F6" opacity="1.000000" stroke="none"
	d="
M331.071228,147.384033
	C332.027161,147.048950 333.154846,147.032806 334.705994,147.025177
	C333.833954,147.256790 332.538483,147.479889 331.071228,147.384033
z"/>
<path fill="#3B82F6" opacity="1.000000" stroke="none"
	d="
M288.064301,96.372765
	C289.048431,96.188026 290.208923,96.338921 291.674591,96.665649
	C290.733398,96.797119 289.487030,96.752762 288.064301,96.372765
z"/>
<path fill="#3B82F6" opacity="1.000000" stroke="none"
	d="
M350.062927,147.372192
	C350.717133,147.049774 351.525543,147.032074 352.738525,147.030243
	C352.167755,147.256378 351.192474,147.466644 350.062927,147.372192
z"/>
<path fill="#3B82F6" opacity="1.000000" stroke="none"
	d="
M216.325867,118.949524
	C216.269547,118.540291 216.497162,117.994331 216.939697,117.239769
	C216.973007,117.625038 216.791397,118.218918 216.325867,118.949524
z"/>
<path fill="#3B82F6" opacity="1.000000" stroke="none"
	d="
M354.238251,146.900085
	C354.182709,146.626495 354.437164,146.424286 354.937134,146.146225
	C354.942963,146.335236 354.731506,146.635605 354.238251,146.900085
z"/>
<path fill="#3B82F6" opacity="1.000000" stroke="none"
	d="
M348.955963,146.305222
	C349.130829,146.259277 349.400635,146.477448 349.835785,146.898224
	C349.684387,146.923691 349.367645,146.746521 348.955963,146.305222
z"/>
<path fill="#3B82F6" opacity="1.000000" stroke="none"
	d="
M329.980713,146.273666
	C330.144745,146.246643 330.401306,146.479416 330.816498,146.919128
	C330.674500,146.928543 330.373901,146.730988 329.980713,146.273666
z"/>
<path fill="#3B82F6" opacity="1.000000" stroke="none"
	d="
M329.102234,139.233734
	C329.371826,139.217438 329.421722,139.478500 329.239868,139.880585
	C329.118835,139.828201 329.076965,139.658035 329.102234,139.233734
z"/>
<path fill="#3B82F6" opacity="1.000000" stroke="none"
	d="
M285.972534,95.283157
	C286.162964,95.157791 286.423401,95.319351 286.835846,95.664764
	C286.690186,95.727707 286.375092,95.634857 285.972534,95.283157
z"/>
<path fill="#3B82F6" opacity="1.000000" stroke="none"
	d="
M358.962952,121.283310
	C359.147705,121.161362 359.416504,121.323967 359.842194,121.676086
	C359.700714,121.734901 359.383362,121.635651 358.962952,121.283310
z"/>
<path fill="#3B82F6" opacity="1.000000" stroke="none"
	d="
M213.285004,122.023224
	C213.257568,121.862785 213.484909,121.602730 213.918198,121.184395
	C213.929352,121.325287 213.734558,121.624451 213.285004,122.023224
z"/>
<path fill="#3B82F6" opacity="1.000000" stroke="none"
	d="
M215.287415,120.027237
	C215.250656,119.860840 215.471893,119.597466 215.895401,119.171646
	C215.913574,119.316223 215.729492,119.623245 215.287415,120.027237
z"/>
<path fill="#3B82F6" opacity="1.000000" stroke="none"
	d="
M218.273804,115.008797
	C218.160995,114.828079 218.323242,114.573326 218.666473,114.168571
	C218.720306,114.306374 218.620773,114.611778 218.273804,115.008797
z"/>
</svg>